<?xml version="1.0" encoding="utf-8"?>
<!-- Generator: Adobe Illustrator 23.0.1, SVG Export Plug-In . SVG Version: 6.00 Build 0)  -->
<svg version="1.1" id="Layer_1" xmlns="http://www.w3.org/2000/svg" xmlns:xlink="http://www.w3.org/1999/xlink" x="0px" y="0px"
	 viewBox="0 0 34 34" style="enable-background:new 0 0 34 34;" xml:space="preserve">
<style type="text/css">
	.st0{fill:#FFFFFF;}
</style>
<path class="st0" d="M19,25.1L16.1,28c-0.5,0.5-1.3,0.5-1.9,0L0.8,14.6c-0.5-0.5-0.5-1.3,0-1.9l2.9-2.9c0.5-0.5,1.3-0.5,1.9,0
	L19,23.2C19.5,23.7,19.5,24.5,19,25.1z"/>
<path class="st0" d="M30.3,6l2.9,2.9c0.5,0.5,0.5,1.4,0,1.9L16.1,28c-0.5,0.5-1.4,0.5-1.9,0l-2.9-2.9c-0.5-0.5-0.5-1.4,0-1.9L28.4,6
	C28.9,5.5,29.8,5.5,30.3,6z"/>
</svg>
