<?xml version="1.0" encoding="utf-8"?>
<!-- Generator: Adobe Illustrator 23.0.1, SVG Export Plug-In . SVG Version: 6.00 Build 0)  -->
<svg version="1.1" id="Layer_1" xmlns="http://www.w3.org/2000/svg" xmlns:xlink="http://www.w3.org/1999/xlink" x="0px" y="0px"
	 viewBox="0 0 34 34" style="enable-background:new 0 0 34 34;" xml:space="preserve">
<style type="text/css">
	.st0{fill:#FFFFFF;}
</style>
<path class="st0" d="M29.1,1.7l3.2,3.2c0.5,0.5,0.5,1.4,0,2L6.8,32.3c-0.5,0.5-1.4,0.5-2,0l-3.2-3.2c-0.5-0.5-0.5-1.4,0-2L27.2,1.7
	C27.7,1.1,28.6,1.1,29.1,1.7z"/>
<path class="st0" d="M1.7,4.8l3.1-3.1c0.6-0.6,1.5-0.6,2.1,0l25.4,25.4c0.6,0.6,0.6,1.5,0,2.1l-3.1,3.1c-0.6,0.6-1.5,0.6-2.1,0
	L1.7,6.9C1.2,6.3,1.2,5.4,1.7,4.8z"/>
</svg>
