<?xml version="1.0" encoding="utf-8"?>
<!-- Generator: Adobe Illustrator 23.0.1, SVG Export Plug-In . SVG Version: 6.00 Build 0)  -->
<svg version="1.1" id="OBJECTS" xmlns="http://www.w3.org/2000/svg" xmlns:xlink="http://www.w3.org/1999/xlink" x="0px" y="0px"
	 viewBox="0 0 269.4 125.1" style="enable-background:new 0 0 269.4 125.1;" xml:space="preserve">
<style type="text/css">
	.st0{fill:#545454;}
	.st1{fill:#7E421C;}
	.st2{fill:#6D3A17;}
	.st3{fill:#613316;}
	.st4{fill:#3F3F3F;}
	.st5{enable-background:new    ;}
	.st6{fill:#FFFFFF;}
	.st7{fill:#FFFFFF;stroke:#FFFFFF;stroke-width:0.5669;stroke-miterlimit:10;}
	.st8{fill:#666666;}
</style>
<path class="st0" d="M91.8,125.1V53.5l-28.2-7L59.5,125L91.8,125.1L91.8,125.1z"/>
<path class="st0" d="M219.2,125.1V53.5l-28.2-7l-4.1,78.5L219.2,125.1L219.2,125.1z"/>
<polygon class="st1" points="63.6,46.6 59.5,125.1 59.5,125.1 "/>
<path class="st2" d="M91.8,55.3l-28.2-8.7L91.8,55.3z"/>
<path class="st3" d="M71.6,70.6c0,0.1,0,0.1,0,0.2l0,0V70.6z"/>
<path class="st3" d="M81.1,78.6c0,1.1-0.2,2.3-0.3,3.4c-0.1,1.1-0.1,2.3-0.1,3.4s-0.1,2.3,0,3.4c0,0.6,0,1.1,0.1,1.7
	c0,0.6,0.1,1.1,0.1,1.7c0.1,1.1,0.2,2.3,0.4,3.4c0.2,1.1,0.4,2.3,0.7,3.4h0.2c0.2-1.1,0.4-2.3,0.5-3.4s0.2-2.3,0.2-3.4
	c0-0.6,0-1.1,0-1.7s0-1.1,0-1.7c0-1.1-0.1-2.3-0.2-3.4s-0.2-2.3-0.3-3.4c-0.2-1.1-0.3-2.3-0.5-3.4c-0.1-1.1-0.1-2.3-0.1-3.4
	c0.1-1.1,0.2-2.3,0.3-3.4v0.1c0.2-0.8,0.4-1.6,0.5-2.4s0.2-1.6,0.3-2.4c0.1-0.8,0.1-1.6,0.1-2.5c0-0.8,0-1.7-0.1-2.5h-0.2
	c-0.3,0.8-0.6,1.6-0.8,2.4c-0.2,0.8-0.4,1.6-0.6,2.4s-0.3,1.6-0.5,2.4c-0.1,0.8-0.2,1.6-0.3,2.4v0.1c0.2,1.1,0.4,2.3,0.5,3.4
	C81.1,76.3,81.2,77.5,81.1,78.6z"/>
<g id="XMLID_80_">
	<polygon id="XMLID_87_" class="st4" points="41.9,100.7 244.5,99.5 257.6,74.1 257.3,68.3 250.7,63.7 256.2,67.5 262.1,66.3 
		269,52 269.1,45 232.2,27.1 246.3,21 246.4,14.2 53.1,11.2 29.3,18.6 50.6,36 3,46.7 -0.5,50.2 17.9,72 37.6,74.7 26.6,75.5 
		26.5,82.2 	"/>
	<polygon id="XMLID_86_" class="st0" points="41.7,93.9 245,92.8 257.3,68.3 250.7,63.7 260.5,62 269.1,45 248.8,17.6 231.1,20.1 
		246.4,14.2 244.3,3.9 42.2,5 29.3,18.6 44.9,22.8 23.2,25 3,46.7 19.1,66.3 60.9,73.2 26.6,75.5 	"/>
	<path id="XMLID_85_" class="st4" d="M221.1,22.6c-4.5-0.1-8.8-0.3-13.3-0.6c-4.4-0.4-8.9-0.7-13.3-1.2c-2.2-0.2-4.4-0.5-6.6-0.9
		l-6.6-1.1c-2.2-0.3-4.4-0.7-6.6-1.1c-2.2-0.3-4.4-0.5-6.6-0.8l0,0c-2.8,0.3-5.6,0.6-8.3,1l-8.3,1.2c-5.6,0.7-11,1.4-16.6,2h-0.1
		h-0.1l-5.4-0.3l-5.4-0.3c-3.6-0.3-7.2-0.6-10.8-0.9c-3.6-0.4-7.2-0.7-10.8-1.1c-3.6-0.5-7.2-0.9-10.8-1.5v-0.3
		c3.6-0.1,7.3,0,10.9,0s7.2,0.2,10.8,0.3c3.6,0.1,7.2,0.3,10.9,0.5l5.4,0.3l5.4,0.4h-0.1c5.6-0.4,11.1-0.9,16.6-1.2l8.3-0.5
		c2.8-0.2,5.5-0.3,8.3-0.6l0,0l0,0c2.1,0.2,4.4,0.4,6.6,0.7c2.2,0.2,4.4,0.3,6.6,0.5l6.6,0.5c2.2,0.1,4.4,0.4,6.6,0.7
		c4.4,0.5,8.8,1.1,13.2,1.7s8.7,1.4,13.1,2.3L221.1,22.6z"/>
	<path id="XMLID_84_" class="st4" d="M175.7,33.7c-2.4,0.3-4.7,0.4-7.1,0.5c-1.2,0.1-2.3,0.1-3.5,0c-1.2,0.1-2.3,0-3.5,0
		c-2.3,0-4.8-0.1-7.1-0.2c-2.3-0.1-4.7-0.2-7-0.4c-4.7-0.4-9.3-1.3-14-1.8c-2.3-0.2-4.7-0.4-7-0.5s-4.7-0.1-7.1-0.1h0.1l-6.9,1
		c-2.3,0.3-4.6,0.6-7,0.8l-6.9,0.7c-2.3,0.2-4.6,0.5-6.9,0.6h-0.2l-0.2-0.1c-1.4-0.3-2.7-0.8-4.1-1.1l-4.1-1.2
		c-1.4-0.4-2.7-0.9-4.1-1.3s-2.7-0.9-4.1-1.3c-2.7-0.9-5.4-1.8-8.1-2.8c-1.4-0.5-2.6-1-4-1.5s-2.7-1.1-4-1.6V23
		c1.4,0.1,2.8,0.5,4.1,0.6c1.3,0.2,2.8,0.5,4.1,0.7c2.8,0.6,5.5,1.1,8.3,1.7c1.4,0.3,2.7,0.7,4.1,0.9c1.4,0.3,2.7,0.7,4.1,1l4.1,1
		c1.4,0.3,2.7,0.8,4.1,1.1l-0.1,0.1c2.3-0.2,4.6-0.2,6.9-0.3l6.9-0.3c2.3-0.1,4.6-0.1,6.9-0.1h7h0.1c2.4,0.3,4.7,0.5,7,0.7
		c2.3,0.2,4.7,0.3,7,0.3c4.8,0.1,9.4-0.3,14.1-0.2c2.3,0,4.7,0.2,7,0.3c2.3,0.2,4.7,0.4,7,0.6c1.1,0.2,2.4,0.3,3.5,0.5
		s2.4,0.3,3.5,0.5c2.4,0.3,4.6,0.7,7,1.2L175.7,33.7z"/>
	<path id="XMLID_83_" class="st4" d="M226,48.5c-1.4,0-2.7-0.2-4.1-0.4c-1.3-0.1-2.8-0.4-4.1-0.6s-2.7-0.5-4-0.8
		c-1.3-0.2-2.7-0.6-4-0.9c-0.6-0.1-1.4-0.3-2-0.5s-1.4-0.3-2-0.6c-1.4-0.4-2.6-0.9-4-1.3c-2.6-1-5.3-2-7.9-2.8h0.2
		c-1.4,0.3-2.7,0.7-4,1c-1.4,0.4-2.7,0.8-4,1.3c-2.7,0.9-5.3,2-8,2.9c-1.4,0.5-2.7,0.8-4,1.3l-4,1.2c-1.4,0.4-2.7,0.8-4,1.2l-2,0.6
		c-0.7,0.2-1.4,0.4-2,0.6h-0.2h-0.1c-1.8-0.1-3.6,0-5.4-0.2c-1.8-0.1-3.7-0.2-5.4-0.3c-1.8-0.2-3.6-0.4-5.4-0.5
		c-0.9-0.1-1.8-0.3-2.7-0.4c-0.9-0.1-1.8-0.3-2.7-0.5v-0.4c0.9-0.2,1.8-0.3,2.7-0.4c0.9-0.1,1.8-0.3,2.7-0.3
		c1.8-0.2,3.6-0.5,5.4-0.6c1.8-0.1,3.6-0.3,5.4-0.4c1.8-0.1,3.6-0.2,5.4-0.2h-0.3c0.7-0.2,1.4-0.4,2-0.6l2-0.6
		c1.4-0.4,2.7-0.7,4-0.9l4-0.9c1.4-0.3,2.8-0.6,4-0.8c2.8-0.6,5.4-0.9,8.2-1.3c1.4-0.3,2.8-0.6,4-0.8c1.4-0.3,2.7-0.7,4-1.1h0.1h0.1
		c2.7,0.6,5.5,0.9,8.1,1.3c1.3,0.2,2.7,0.5,4,0.7c0.7,0.1,1.4,0.3,2,0.5s1.4,0.3,2,0.6c1.4,0.4,2.7,0.8,4,1.2c1.4,0.4,2.6,0.9,4,1.3
		c1.4,0.4,2.6,1,3.9,1.5c1.3,0.5,2.7,1.1,3.9,1.7L226,48.5z"/>
	<path id="XMLID_82_" class="st4" d="M182.9,65.4c-2.1-0.1-4.3-0.3-6.4-0.4c-2.1-0.1-4.3-0.3-6.4-0.5c-4.3-0.4-8.6-0.7-12.8-1.2
		c-4.3-0.5-8.5-0.8-12.8-1.4l-6.4-0.8l-6.4-0.9l0.4-0.1c-2.4,0.5-4.8,1.1-7.2,1.5l-7.2,1.4l-7.2,1.4c-2.4,0.5-4.8,0.9-7.2,1.4l0,0
		c-0.1,0-0.1,0-0.2,0c-1.9-0.5-3.6-0.9-5.5-1.3c-1.9-0.5-3.6-0.8-5.5-1.2c-3.7-0.7-7.4-1.6-11.1-2.3s-7.3-1.5-11.1-2.1l-11.1-2
		l1-2.3l4.2,6.9c0.7,1.1,1.4,2.3,2.2,3.5c0.7,1.1,1.5,2.2,2.2,3.3c0.7,1.1,1.6,2.1,2.2,3.3c0.7,1.1,1.4,2.3,2.1,3.5
		c1.3,2.5,2.5,5,3.8,7.4l-1.4-0.8c1.7-0.2,3.4-0.5,4.9-0.8c1.7-0.3,3.3-0.6,5-0.9l9.9-2l5-1c1.7-0.3,3.3-0.6,4.9-0.8
		c3.4-0.5,6.6-0.8,10-1.3l-0.1,4.3l-15.4-4.5c-5.1-1.5-10.3-3-15.4-4.5v-0.4c5.2,0.8,10.5,1.6,15.6,2.5l15.6,2.5
		c0.9,0.2,1.5,1.2,1.4,2.4c-0.1,1-0.7,1.7-1.4,1.9H115c-3.3,0.7-6.6,1.7-9.9,2.2c-1.7,0.3-3.3,0.6-4.9,0.8l-4.9,0.7l-10,1.4
		c-1.7,0.2-3.4,0.5-4.9,0.7c-1.7,0.3-3.4,0.5-4.9,0.8c-0.6,0.1-1-0.2-1.4-0.7v-0.1c-1.4-2.3-3-4.5-4.4-6.7c-0.7-1.1-1.4-2.3-2.1-3.6
		c-0.7-1.2-1.2-2.5-1.8-3.8c-0.6-1.2-1.2-2.6-1.8-3.8c-0.7-1.2-1.3-2.5-2-3.6l-3.9-7.3V56c-0.4-0.7-0.2-1.6,0.2-2
		c0.3-0.2,0.6-0.4,0.9-0.3l11,2.8c3.6,0.9,7.4,1.8,11,2.7c3.6,0.8,7.4,1.7,11,2.5c1.9,0.5,3.7,0.8,5.5,1.2c1.9,0.4,3.7,0.7,5.6,1.1
		h-0.2c2.3-0.6,4.8-1.3,7.1-2l7.1-2l7.1-2c2.3-0.7,4.8-1.3,7.1-1.9c0.1,0,0.2,0,0.3,0l0,0l6.4,0.8l6.4,0.9c4.2,0.6,8.5,1.2,12.7,1.9
		s8.4,1.3,12.7,2.1c2.2,0.3,4.2,0.8,6.3,1.2s4.2,0.8,6.3,1.3L182.9,65.4z"/>
	<path id="XMLID_81_" class="st4" d="M214.2,82c-1.6-0.3-3-0.7-4.5-1.1s-3-0.8-4.5-1.3s-2.9-0.9-4.4-1.5c-1.5-0.5-2.9-0.9-4.4-1.6
		l0.3,0.1c-2.2,0.3-4.4,0.7-6.5,0.8c-2.2,0.3-4.4,0.5-6.6,0.7c-2.2,0.2-4.4,0.4-6.6,0.4c-2.2,0.1-4.4,0.2-6.6,0.1
		c2.1-0.7,4.3-1.2,6.4-1.6c2.2-0.5,4.3-0.9,6.5-1.2c2.2-0.4,4.3-0.8,6.5-1c2.2-0.4,4.4-0.6,6.5-0.8h0.2l0.2,0.1
		c1.5,0.5,2.9,1.2,4.4,1.8c1.5,0.6,2.9,1.2,4.4,1.9c1.4,0.6,2.9,1.3,4.3,2.1C211.4,80.4,212.8,81.2,214.2,82z"/>
</g>
<g class="st5">
	<path class="st6" d="M59.6,66.3c0.1-1.1,0.2-2.1,0.4-3.2c0.2-1,0.4-2.1,0.6-3.1c0.2-1,0.4-2.1,0.6-3.1c0.2-1.1,0.3-2.2,0.4-3.3
		c-1.3-0.1-2.4-0.1-3.4,0c-0.9,0.1-1.9,0.2-2.8,0.2c-0.9,0.1-1.9,0.1-2.9,0.1s-2.3-0.1-3.7-0.2c-1.1,1.2-2.4,2.5-3.8,3.9
		c-1.4,1.4-2.9,2.6-4.5,3.8c-1.6,1.1-3.3,2.1-5,2.8c-1.7,0.7-3.5,1.1-5.2,1c-1.2-0.1-2.3-0.3-3.4-0.8s-2-1.1-2.8-1.9
		s-1.4-1.8-1.8-2.9c-0.4-1.1-0.6-2.3-0.5-3.6c0-0.7,0.2-1.2,0.4-1.5c0.2-0.3,0.7-0.5,1.4-0.5c0.4,0,0.6,0.4,0.9,1.1s0.6,1.5,1,2.4
		s0.9,1.7,1.6,2.4s1.6,1.1,2.8,1.2c1.5,0.1,3-0.1,4.4-0.7c1.5-0.5,2.9-1.2,4.2-2.1c1.4-0.9,2.7-1.9,3.9-3s2.3-2.2,3.3-3.3
		c-0.1-1.1-0.4-1.9-0.9-2.4c-0.6-0.5-1.2-1.1-1.8-1.6s-1.2-1.2-1.6-2.1c-0.5-0.9-0.6-2.2-0.6-4c0.1-2.6,1-4.6,2.5-5.9
		c1.5-1.4,3.6-2,6.1-1.9c0.7,0,1.5,0.2,2.2,0.4s1.4,0.4,2.2,0.7c0.7,0.3,1.5,0.5,2.2,0.7s1.4,0.3,2.2,0.4c0.5,0,0.9,0,1.2-0.1
		s0.6-0.3,0.8-0.5c0.3-0.2,0.5-0.6,0.8-1s0.7-0.9,1.1-1.5c0.3-0.3,0.6-0.8,1.2-1.6c0.5-0.7,1.1-1.5,1.8-2.4c0.6-0.9,1.3-1.8,2-2.8
		s1.4-1.9,2-2.8s1.2-1.7,1.7-2.4c0.5-0.7,0.9-1.2,1.1-1.6c0.5-0.4,0.9-0.6,1.2-0.7c0.4-0.1,0.8-0.1,1.2-0.1c0.5,0,0.8,0.2,1,0.6
		s0.3,0.8,0.4,1.3c0,0.5,0,1,0,1.6c0,0.5-0.1,0.9-0.1,1.2c0,0.1,0,0.3,0,0.6c0,0.3,0,0.6-0.1,0.9s-0.1,0.6-0.1,0.9s0,0.5,0,0.5
		c-0.1,0.4-0.4,1-0.7,1.9c-0.3,0.8-0.6,1.8-1,2.8c-0.4,1.1-0.8,2.2-1.2,3.3c-0.4,1.2-0.8,2.3-1.1,3.4c-0.4,1.1-0.7,2-1,2.9
		c-0.3,0.8-0.5,1.5-0.6,1.9c-0.1,0.2-0.1,0.5-0.2,1s-0.2,1-0.3,1.5c-0.1,0.5-0.2,1-0.3,1.5c-0.1,0.5-0.2,0.8-0.2,0.9
		c0.3,0.1,0.7,0.3,1,0.4c0.3,0.2,0.5,0.5,0.5,0.9s-0.2,0.8-0.5,1s-0.7,0.5-1.1,0.6c-0.4,0.2-0.8,0.4-1.1,0.7
		c-0.4,0.3-0.6,0.7-0.6,1.2c-0.1,0.5-0.3,1.4-0.6,2.7c-0.3,1.3-0.6,2.7-0.9,4.2s-0.6,2.9-0.9,4.2s-0.5,2.2-0.6,2.7
		c0,0.1-0.1,0.4-0.3,0.7s-0.3,0.7-0.5,1s-0.3,0.6-0.5,0.9s-0.3,0.5-0.4,0.6c-0.9-0.3-1.7-0.6-2.3-0.9C59.8,68,59.5,67.3,59.6,66.3z
		 M43.3,41.1c0,0.6,0.1,1.3,0.5,2.1s0.8,1.5,1.4,2.2s1.2,1.3,1.8,1.8s1.3,0.8,1.8,0.8s1.2-0.3,2-1s1.5-1.5,2.3-2.4
		c0.7-0.9,1.4-1.8,1.9-2.7s0.8-1.5,0.8-1.8c0-0.7-0.2-1.3-0.6-1.7c-0.4-0.4-0.9-0.7-1.6-0.8c-0.6-0.2-1.2-0.3-1.9-0.3
		s-1.2-0.1-1.6-0.1c-0.6,0-1.2,0-2,0.1s-1.5,0.2-2.2,0.5s-1.3,0.7-1.8,1.2C43.7,39.5,43.4,40.2,43.3,41.1z M59.9,41.9
		c-0.5,0-1.1,0.3-2,1s-1.8,1.5-2.6,2.4c-0.9,0.9-1.7,1.8-2.3,2.7c-0.7,0.9-1,1.6-1.1,2.1c0.2,0,0.7,0,1.4,0s1.4,0,2.2,0.1
		c0.8,0,1.5,0,2.2,0s1.2,0,1.4,0s0.4,0,0.7-0.1s0.7-0.1,1-0.2c0.3-0.1,0.6-0.1,0.9-0.2c0.3-0.1,0.4-0.1,0.5-0.2c0,0,0.1-0.1,0.1-0.4
		c0-0.3,0-0.5,0-0.7c0-0.3,0-0.9-0.1-1.6c-0.1-0.7-0.2-1.4-0.4-2.2c-0.2-0.7-0.4-1.4-0.7-1.9C60.8,42.2,60.4,41.9,59.9,41.9z
		 M61.2,38.8c0.8,1.1,1.5,2.4,2.2,3.7c0.7,1.3,1.3,2.6,1.9,4l6.3-20L61.2,38.8z"/>
	<path class="st6" d="M72.9,64.1c0-0.5,0.2-1.2,0.5-1.8c0.3-0.7,0.7-1.1,1.3-1.3c0.1,0,0.2-0.1,0.3-0.1c0.1,0,0.3,0,0.4-0.1
		c0.2,0,0.3,0,0.4,0l-0.2,3.5c0.3-0.2,0.6-0.7,1.2-1.3c0.5-0.6,1.1-1.4,1.6-2.1c0.6-0.8,1.1-1.5,1.6-2.2s0.8-1.2,1-1.5l15.3-28
		c0.5-0.5,0.8-0.8,1.1-0.9c0.3-0.1,0.6,0,1,0.2c0.3,0.2,0.6,0.8,0.9,1.7L90,47.7v0.8c1.1,0.2,2.1,0.5,3,0.9s1.7,0.9,2.4,1.5
		c0.7,0.6,1.2,1.4,1.5,2.3c0.3,0.9,0.5,1.9,0.4,3.2c-0.1,2.1-0.7,4-1.8,5.7c-1.1,1.7-2.5,3.2-4.1,4.5c-1.6,1.2-3.4,2.2-5.4,2.9
		c-1.9,0.7-3.8,1-5.6,0.9c-0.8,0-1.6-0.2-2.5-0.5s-1.7-0.7-2.4-1.2c-0.7-0.5-1.4-1.2-1.8-1.9C73.1,65.9,72.8,65,72.9,64.1z
		 M90.3,52.5c-0.5,0-1.2,0.2-1.8,0.7c-0.7,0.5-1.4,1.2-2,2c-0.7,0.8-1.3,1.8-2,2.8c-0.6,1-1.2,2.1-1.7,3.1s-0.9,2-1.2,2.9
		c-0.3,0.9-0.5,1.6-0.5,2.2c1.1,0.1,2.4-0.2,3.8-0.6c1.4-0.5,2.7-1.1,4-2c1.2-0.8,2.3-1.8,3.2-3c0.9-1.2,1.3-2.4,1.4-3.7
		c0.1-1.1-0.1-2.2-0.5-3C92.4,53.1,91.6,52.6,90.3,52.5z"/>
	<path class="st6" d="M100,65.9c0-0.2,0-0.5,0.1-1c0-0.5,0.1-0.9,0.1-1c1.4-3,3.2-5.8,5.3-8.3c2.1-2.5,4.4-4.7,7-6.6
		c0.1,0,0.2,0,0.4-0.1c0.2-0.1,0.3-0.1,0.4-0.1c1.1,0.1,1.9,0.3,2.6,0.9c0.7,0.5,1.2,1.2,1.5,2c0.4,0.8,0.6,1.7,0.7,2.6
		c0.1,1,0.1,1.9,0.1,2.8c-0.1,1.6-0.5,3.4-1.3,5.1c-0.8,1.8-1.8,3.4-3.1,4.8c-1.3,1.4-2.7,2.6-4.3,3.5s-3.2,1.3-4.8,1.2
		c-1.6-0.1-2.9-0.6-3.6-1.6C100.2,69,99.9,67.6,100,65.9z M104.6,65.4c0,0.5,0.1,0.8,0.5,1c0.3,0.2,0.7,0.3,1,0.3
		c1,0.1,2-0.2,2.9-0.7c1-0.5,1.8-1.2,2.6-2c0.8-0.8,1.4-1.8,1.9-2.8s0.8-2,0.8-3c0-0.5,0-1,0-1.6s-0.1-1.1-0.3-1.5
		c-0.2-0.5-0.5-0.8-0.9-1.1s-1-0.3-1.7-0.2c-0.6,0.1-1.2,0.6-2,1.5s-1.5,2-2.2,3.3s-1.3,2.5-1.8,3.8
		C104.9,63.7,104.6,64.7,104.6,65.4z"/>
	<path class="st6" d="M120.1,69.2c0-0.6,0.3-1.5,0.7-2.7c0.4-1.1,0.9-2.4,1.6-3.7c0.6-1.3,1.4-2.7,2.2-4c0.8-1.4,1.6-2.6,2.4-3.7
		c0.8-1.1,1.6-2,2.3-2.7s1.3-1,1.8-1c1.1,0.1,1.6,0.7,1.6,1.8c0,0.5-0.1,0.9-0.3,1.3c-0.2,0.3-0.4,0.6-0.7,0.9
		c-0.3,0.3-0.5,0.6-0.8,0.8c-0.3,0.3-0.5,0.6-0.8,0.9c-0.4,0.6-0.9,1.5-1.4,2.5c-0.6,1.1-1.1,2.1-1.7,3.1c-0.5,1-1,1.9-1.4,2.7
		c-0.4,0.8-0.6,1.2-0.6,1.3v0.8c1.5-0.2,3.1-0.8,4.5-1.9c1.5-1,2.9-2.3,4.2-3.7c1.4-1.5,2.7-3,3.9-4.6s2.4-3.1,3.5-4.5
		s2.1-2.5,3.1-3.4s1.8-1.3,2.6-1.3c-0.1,1.6-0.5,3-1.1,4.2c-0.7,1.2-1.4,2.4-2.1,3.6c-0.8,1.2-1.5,2.4-2.1,3.7
		c-0.7,1.3-1,2.7-1.1,4.3c0,0.7,0.3,1.3,1.1,1.9c0.7,0.6,1.6,1.1,2.6,1.5s1.9,0.8,2.9,1c0.9,0.3,1.6,0.4,1.9,0.5l-0.1,1.6
		c-0.9,0-2-0.1-3.4-0.1s-2.7-0.3-4-0.7c-1.3-0.4-2.5-0.9-3.5-1.7s-1.7-1.8-2-3.2c-1.1,0.7-2.1,1.5-3.1,2.4s-2,1.8-3.1,2.6
		c-1,0.8-2.1,1.5-3.3,2c-1.1,0.5-2.3,0.8-3.6,0.7c-0.8,0-1.4-0.4-1.9-1.2C120.3,70.6,120,69.9,120.1,69.2z"/>
	<path class="st6" d="M148.2,67.7c0.1-1.2,0.3-2.4,0.8-3.6c0.5-1.2,1.1-2.4,1.7-3.6c0.7-1.2,1.3-2.3,2-3.5c0.7-1.1,1.2-2.3,1.6-3.4
		c-0.8,0.4-1.4,0.7-2,0.7c-0.5,0-1.2,0-1.9,0c-0.1,0-0.3,0-0.7-0.1c-0.4,0-0.7-0.1-0.8-0.1c0.3-0.9,0.8-1.7,1.4-2.4
		c0.7-0.7,1.4-1.3,2.3-1.8c0.8-0.5,1.7-0.9,2.6-1.2c0.9-0.3,1.7-0.6,2.4-0.7c1.3-1.9,2.4-3.9,3.2-5.8c0.9-2,1.7-3.9,2.6-5.8
		c0.9-1.9,1.9-3.7,3-5.4s2.6-3.2,4.5-4.6l0.2,2.4L162.7,47c0.4-0.1,1-0.2,1.6-0.3s1.3-0.2,1.9-0.3c0.7-0.1,1.3-0.2,1.9-0.2
		c0.6-0.1,1.1-0.2,1.6-0.3c0,0,0.2,0,0.4,0s0.4,0,0.5,0c0.5,0,1,0.2,1.3,0.4s0.6,0.7,0.8,1.4c-2.7,0.7-5.2,1.5-7.4,2.3
		s-4.2,1.9-5.8,3.3c-1.7,1.4-3.1,3.2-4.2,5.5c-1.1,2.2-2,5.2-2.6,8.7c0,0.8,0,1.5,0,2.1s0.5,1,1.4,1.2c0.9,0,1.8-0.1,2.6-0.4
		s1.6-0.7,2.4-1.1c0.8-0.4,1.5-0.8,2.3-1.1c0.8-0.3,1.6-0.5,2.5-0.4c-0.1,1-0.5,1.9-1.4,2.7s-1.9,1.5-3.1,2.1
		c-1.2,0.6-2.4,1-3.6,1.3c-1.2,0.3-2.2,0.4-3,0.3c-0.8,0-1.5-0.2-2.1-0.6s-1.1-0.9-1.5-1.4c-0.4-0.6-0.7-1.3-0.8-2
		C148.2,69.3,148.1,68.5,148.2,67.7z"/>
</g>
<g class="st5">
	<path class="st6" d="M59.6,66.3c0.1-1.1,0.2-2.1,0.4-3.2c0.2-1,0.4-2.1,0.6-3.1c0.2-1,0.4-2.1,0.6-3.1c0.2-1.1,0.3-2.2,0.4-3.3
		c-1.3-0.1-2.4-0.1-3.4,0c-0.9,0.1-1.9,0.2-2.8,0.2c-0.9,0.1-1.9,0.1-2.9,0.1s-2.3-0.1-3.7-0.2c-1.1,1.2-2.4,2.5-3.8,3.9
		c-1.4,1.4-2.9,2.6-4.5,3.8c-1.6,1.1-3.3,2.1-5,2.8c-1.7,0.7-3.5,1.1-5.2,1c-1.2-0.1-2.3-0.3-3.4-0.8s-2-1.1-2.8-1.9
		s-1.4-1.8-1.8-2.9c-0.4-1.1-0.6-2.3-0.5-3.6c0-0.7,0.2-1.2,0.4-1.5c0.2-0.3,0.7-0.5,1.4-0.5c0.4,0,0.6,0.4,0.9,1.1s0.6,1.5,1,2.4
		s0.9,1.7,1.6,2.4s1.6,1.1,2.8,1.2c1.5,0.1,3-0.1,4.4-0.7c1.5-0.5,2.9-1.2,4.2-2.1c1.4-0.9,2.7-1.9,3.9-3s2.3-2.2,3.3-3.3
		c-0.1-1.1-0.4-1.9-0.9-2.4c-0.6-0.5-1.2-1.1-1.8-1.6s-1.2-1.2-1.6-2.1c-0.5-0.9-0.6-2.2-0.6-4c0.1-2.6,1-4.6,2.5-5.9
		c1.5-1.4,3.6-2,6.1-1.9c0.7,0,1.5,0.2,2.2,0.4s1.4,0.4,2.2,0.7c0.7,0.3,1.5,0.5,2.2,0.7s1.4,0.3,2.2,0.4c0.5,0,0.9,0,1.2-0.1
		s0.6-0.3,0.8-0.5c0.3-0.2,0.5-0.6,0.8-1s0.7-0.9,1.1-1.5c0.3-0.3,0.6-0.8,1.2-1.6c0.5-0.7,1.1-1.5,1.8-2.4c0.6-0.9,1.3-1.8,2-2.8
		s1.4-1.9,2-2.8s1.2-1.7,1.7-2.4c0.5-0.7,0.9-1.2,1.1-1.6c0.5-0.4,0.9-0.6,1.2-0.7c0.4-0.1,0.8-0.1,1.2-0.1c0.5,0,0.8,0.2,1,0.6
		s0.3,0.8,0.4,1.3c0,0.5,0,1,0,1.6c0,0.5-0.1,0.9-0.1,1.2c0,0.1,0,0.3,0,0.6c0,0.3,0,0.6-0.1,0.9s-0.1,0.6-0.1,0.9s0,0.5,0,0.5
		c-0.1,0.4-0.4,1-0.7,1.9c-0.3,0.8-0.6,1.8-1,2.8c-0.4,1.1-0.8,2.2-1.2,3.3c-0.4,1.2-0.8,2.3-1.1,3.4c-0.4,1.1-0.7,2-1,2.9
		c-0.3,0.8-0.5,1.5-0.6,1.9c-0.1,0.2-0.1,0.5-0.2,1s-0.2,1-0.3,1.5c-0.1,0.5-0.2,1-0.3,1.5c-0.1,0.5-0.2,0.8-0.2,0.9
		c0.3,0.1,0.7,0.3,1,0.4c0.3,0.2,0.5,0.5,0.5,0.9s-0.2,0.8-0.5,1s-0.7,0.5-1.1,0.6c-0.4,0.2-0.8,0.4-1.1,0.7
		c-0.4,0.3-0.6,0.7-0.6,1.2c-0.1,0.5-0.3,1.4-0.6,2.7c-0.3,1.3-0.6,2.7-0.9,4.2s-0.6,2.9-0.9,4.2s-0.5,2.2-0.6,2.7
		c0,0.1-0.1,0.4-0.3,0.7s-0.3,0.7-0.5,1s-0.3,0.6-0.5,0.9s-0.3,0.5-0.4,0.6c-0.9-0.3-1.7-0.6-2.3-0.9C59.8,68,59.5,67.3,59.6,66.3z
		 M43.3,41.1c0,0.6,0.1,1.3,0.5,2.1s0.8,1.5,1.4,2.2s1.2,1.3,1.8,1.8s1.3,0.8,1.8,0.8s1.2-0.3,2-1s1.5-1.5,2.3-2.4
		c0.7-0.9,1.4-1.8,1.9-2.7s0.8-1.5,0.8-1.8c0-0.7-0.2-1.3-0.6-1.7c-0.4-0.4-0.9-0.7-1.6-0.8c-0.6-0.2-1.2-0.3-1.9-0.3
		s-1.2-0.1-1.6-0.1c-0.6,0-1.2,0-2,0.1s-1.5,0.2-2.2,0.5s-1.3,0.7-1.8,1.2C43.7,39.5,43.4,40.2,43.3,41.1z M59.9,41.9
		c-0.5,0-1.1,0.3-2,1s-1.8,1.5-2.6,2.4c-0.9,0.9-1.7,1.8-2.3,2.7c-0.7,0.9-1,1.6-1.1,2.1c0.2,0,0.7,0,1.4,0s1.4,0,2.2,0.1
		c0.8,0,1.5,0,2.2,0s1.2,0,1.4,0s0.4,0,0.7-0.1s0.7-0.1,1-0.2c0.3-0.1,0.6-0.1,0.9-0.2c0.3-0.1,0.4-0.1,0.5-0.2c0,0,0.1-0.1,0.1-0.4
		c0-0.3,0-0.5,0-0.7c0-0.3,0-0.9-0.1-1.6c-0.1-0.7-0.2-1.4-0.4-2.2c-0.2-0.7-0.4-1.4-0.7-1.9C60.8,42.2,60.4,41.9,59.9,41.9z
		 M61.2,38.8c0.8,1.1,1.5,2.4,2.2,3.7c0.7,1.3,1.3,2.6,1.9,4l6.3-20L61.2,38.8z"/>
	<path class="st6" d="M72.9,64.1c0-0.5,0.2-1.2,0.5-1.8c0.3-0.7,0.7-1.1,1.3-1.3c0.1,0,0.2-0.1,0.3-0.1c0.1,0,0.3,0,0.4-0.1
		c0.2,0,0.3,0,0.4,0l-0.2,3.5c0.3-0.2,0.6-0.7,1.2-1.3c0.5-0.6,1.1-1.4,1.6-2.1c0.6-0.8,1.1-1.5,1.6-2.2s0.8-1.2,1-1.5l15.3-28
		c0.5-0.5,0.8-0.8,1.1-0.9c0.3-0.1,0.6,0,1,0.2c0.3,0.2,0.6,0.8,0.9,1.7L90,47.7v0.8c1.1,0.2,2.1,0.5,3,0.9s1.7,0.9,2.4,1.5
		c0.7,0.6,1.2,1.4,1.5,2.3c0.3,0.9,0.5,1.9,0.4,3.2c-0.1,2.1-0.7,4-1.8,5.7c-1.1,1.7-2.5,3.2-4.1,4.5c-1.6,1.2-3.4,2.2-5.4,2.9
		c-1.9,0.7-3.8,1-5.6,0.9c-0.8,0-1.6-0.2-2.5-0.5s-1.7-0.7-2.4-1.2c-0.7-0.5-1.4-1.2-1.8-1.9C73.1,65.9,72.8,65,72.9,64.1z
		 M90.3,52.5c-0.5,0-1.2,0.2-1.8,0.7c-0.7,0.5-1.4,1.2-2,2c-0.7,0.8-1.3,1.8-2,2.8c-0.6,1-1.2,2.1-1.7,3.1s-0.9,2-1.2,2.9
		c-0.3,0.9-0.5,1.6-0.5,2.2c1.1,0.1,2.4-0.2,3.8-0.6c1.4-0.5,2.7-1.1,4-2c1.2-0.8,2.3-1.8,3.2-3c0.9-1.2,1.3-2.4,1.4-3.7
		c0.1-1.1-0.1-2.2-0.5-3C92.4,53.1,91.6,52.6,90.3,52.5z"/>
	<path class="st6" d="M100,65.9c0-0.2,0-0.5,0.1-1c0-0.5,0.1-0.9,0.1-1c1.4-3,3.2-5.8,5.3-8.3c2.1-2.5,4.4-4.7,7-6.6
		c0.1,0,0.2,0,0.4-0.1c0.2-0.1,0.3-0.1,0.4-0.1c1.1,0.1,1.9,0.3,2.6,0.9c0.7,0.5,1.2,1.2,1.5,2c0.4,0.8,0.6,1.7,0.7,2.6
		c0.1,1,0.1,1.9,0.1,2.8c-0.1,1.6-0.5,3.4-1.3,5.1c-0.8,1.8-1.8,3.4-3.1,4.8c-1.3,1.4-2.7,2.6-4.3,3.5s-3.2,1.3-4.8,1.2
		c-1.6-0.1-2.9-0.6-3.6-1.6C100.2,69,99.9,67.6,100,65.9z M104.6,65.4c0,0.5,0.1,0.8,0.5,1c0.3,0.2,0.7,0.3,1,0.3
		c1,0.1,2-0.2,2.9-0.7c1-0.5,1.8-1.2,2.6-2c0.8-0.8,1.4-1.8,1.9-2.8s0.8-2,0.8-3c0-0.5,0-1,0-1.6s-0.1-1.1-0.3-1.5
		c-0.2-0.5-0.5-0.8-0.9-1.1s-1-0.3-1.7-0.2c-0.6,0.1-1.2,0.6-2,1.5s-1.5,2-2.2,3.3s-1.3,2.5-1.8,3.8
		C104.9,63.7,104.6,64.7,104.6,65.4z"/>
	<path class="st6" d="M120.1,69.2c0-0.6,0.3-1.5,0.7-2.7c0.4-1.1,0.9-2.4,1.6-3.7c0.6-1.3,1.4-2.7,2.2-4c0.8-1.4,1.6-2.6,2.4-3.7
		c0.8-1.1,1.6-2,2.3-2.7s1.3-1,1.8-1c1.1,0.1,1.6,0.7,1.6,1.8c0,0.5-0.1,0.9-0.3,1.3c-0.2,0.3-0.4,0.6-0.7,0.9
		c-0.3,0.3-0.5,0.6-0.8,0.8c-0.3,0.3-0.5,0.6-0.8,0.9c-0.4,0.6-0.9,1.5-1.4,2.5c-0.6,1.1-1.1,2.1-1.7,3.1c-0.5,1-1,1.9-1.4,2.7
		c-0.4,0.8-0.6,1.2-0.6,1.3v0.8c1.5-0.2,3.1-0.8,4.5-1.9c1.5-1,2.9-2.3,4.2-3.7c1.4-1.5,2.7-3,3.9-4.6s2.4-3.1,3.5-4.5
		s2.1-2.5,3.1-3.4s1.8-1.3,2.6-1.3c-0.1,1.6-0.5,3-1.1,4.2c-0.7,1.2-1.4,2.4-2.1,3.6c-0.8,1.2-1.5,2.4-2.1,3.7
		c-0.7,1.3-1,2.7-1.1,4.3c0,0.7,0.3,1.3,1.1,1.9c0.7,0.6,1.6,1.1,2.6,1.5s1.9,0.8,2.9,1c0.9,0.3,1.6,0.4,1.9,0.5l-0.1,1.6
		c-0.9,0-2-0.1-3.4-0.1s-2.7-0.3-4-0.7c-1.3-0.4-2.5-0.9-3.5-1.7s-1.7-1.8-2-3.2c-1.1,0.7-2.1,1.5-3.1,2.4s-2,1.8-3.1,2.6
		c-1,0.8-2.1,1.5-3.3,2c-1.1,0.5-2.3,0.8-3.6,0.7c-0.8,0-1.4-0.4-1.9-1.2C120.3,70.6,120,69.9,120.1,69.2z"/>
	<path class="st6" d="M148.2,67.7c0.1-1.2,0.3-2.4,0.8-3.6c0.5-1.2,1.1-2.4,1.7-3.6c0.7-1.2,1.3-2.3,2-3.5c0.7-1.1,1.2-2.3,1.6-3.4
		c-0.8,0.4-1.4,0.7-2,0.7c-0.5,0-1.2,0-1.9,0c-0.1,0-0.3,0-0.7-0.1c-0.4,0-0.7-0.1-0.8-0.1c0.3-0.9,0.8-1.7,1.4-2.4
		c0.7-0.7,1.4-1.3,2.3-1.8c0.8-0.5,1.7-0.9,2.6-1.2c0.9-0.3,1.7-0.6,2.4-0.7c1.3-1.9,2.4-3.9,3.2-5.8c0.9-2,1.7-3.9,2.6-5.8
		c0.9-1.9,1.9-3.7,3-5.4s2.6-3.2,4.5-4.6l0.2,2.4L162.7,47c0.4-0.1,1-0.2,1.6-0.3s1.3-0.2,1.9-0.3c0.7-0.1,1.3-0.2,1.9-0.2
		c0.6-0.1,1.1-0.2,1.6-0.3c0,0,0.2,0,0.4,0s0.4,0,0.5,0c0.5,0,1,0.2,1.3,0.4s0.6,0.7,0.8,1.4c-2.7,0.7-5.2,1.5-7.4,2.3
		s-4.2,1.9-5.8,3.3c-1.7,1.4-3.1,3.2-4.2,5.5c-1.1,2.2-2,5.2-2.6,8.7c0,0.8,0,1.5,0,2.1s0.5,1,1.4,1.2c0.9,0,1.8-0.1,2.6-0.4
		s1.6-0.7,2.4-1.1c0.8-0.4,1.5-0.8,2.3-1.1c0.8-0.3,1.6-0.5,2.5-0.4c-0.1,1-0.5,1.9-1.4,2.7s-1.9,1.5-3.1,2.1
		c-1.2,0.6-2.4,1-3.6,1.3c-1.2,0.3-2.2,0.4-3,0.3c-0.8,0-1.5-0.2-2.1-0.6s-1.1-0.9-1.5-1.4c-0.4-0.6-0.7-1.3-0.8-2
		C148.2,69.3,148.1,68.5,148.2,67.7z"/>
</g>
<g class="st5">
	<path class="st6" d="M224.5,75c0.1-2.5,0.6-4.9,1.3-7.4s1.6-4.9,2.7-7.3c1.1-2.4,2.2-4.7,3.4-7c1.2-2.2,2.3-4.4,3.3-6.3v-0.8
		c-0.5,0.5-1.2,1.2-2.2,2.3c-1,1-2.1,2.2-3.3,3.5s-2.5,2.7-3.9,4.1c-1.4,1.4-2.7,2.8-3.9,4.1s-2.3,2.5-3.3,3.5s-1.7,1.8-2.1,2.3
		c-0.5,0.5-0.9,1.2-1.4,2.2c-0.4,1-0.9,2-1.5,2.9c-0.5,1-1.1,1.8-1.7,2.6c-0.6,0.7-1.3,1.1-2,1c-0.6,0-1-0.1-1.4-0.3
		c-0.3-0.1-0.6-0.4-0.7-0.6c-0.1-0.3-0.2-0.6-0.2-1.1c0-0.4,0-0.9,0-1.5c0.2-3.1,0.8-6.1,1.8-9s2.1-5.8,3.2-8.8v-0.8
		c-0.1,0.1-0.2,0.2-0.4,0.4s-0.3,0.3-0.4,0.4c-1,1.5-2.1,3.1-3.1,4.8c-1.1,1.7-2.2,3.4-3.3,5c-1.2,1.7-2.4,3.2-3.7,4.7
		s-2.7,2.8-4.2,3.9s-3.1,2-4.8,2.6s-3.6,0.9-5.6,0.8c-0.4,0-1-0.1-1.7-0.2s-1.4-0.2-2.1-0.5c-0.7-0.2-1.2-0.6-1.7-1.1
		s-0.7-1.2-0.6-2c0-0.3,0.2-0.8,0.6-1.3c0.4-0.5,0.7-0.9,1-1.1c0.5,1,0.9,1.7,1.3,2c0.4,0.3,0.9,0.5,1.6,0.6
		c1.2,0.1,2.4-0.1,3.8-0.4c1.3-0.3,2.6-0.8,3.9-1.4c1.3-0.6,2.5-1.3,3.6-2.2c1.1-0.8,2.1-1.7,2.9-2.6c0.6-0.8,1.4-1.9,2.3-3.1
		s1.9-2.7,2.9-4.2s2.1-3.1,3.2-4.7c1.1-1.6,2.2-3.1,3.2-4.6c1-1.4,2-2.7,2.9-3.9c0.9-1.1,1.6-2,2.3-2.5c0.5,0,1,0.1,1.2,0.4
		c0.3,0.2,0.4,0.5,0.5,0.8s0.1,0.7,0.1,1.2s-0.1,1-0.1,1.5c-0.1,1.8-0.4,3.5-1,5.2s-1.2,3.3-1.9,4.8c-0.7,1.6-1.3,3.1-1.9,4.6
		c-0.6,1.5-0.9,3-1,4.5c0,0.1,0,0.2,0,0.4c0,0.2,0,0.4,0,0.4c3.9-4.2,7.3-7.8,10.2-10.9c2.8-3.1,5.3-5.7,7.2-7.8
		c2-2.2,3.6-3.9,4.9-5.3c1.3-1.4,2.3-2.4,3-3.1c0.7-0.7,1.3-1.3,1.7-1.5c0.4-0.3,0.7-0.4,0.9-0.4c0.4,0,0.7,0.2,0.9,0.4
		c0.2,0.3,0.3,0.6,0.3,0.9c0,0.3,0,0.7,0,1.1c0,0.4-0.1,0.7-0.1,0.9c-0.1,1.8-0.5,3.6-1.2,5.4c-0.7,1.8-1.6,3.6-2.6,5.5
		s-2.1,3.8-3.3,5.7s-2.3,3.9-3.3,5.9c-1,2-1.9,4.1-2.6,6.2c-0.7,2.1-1.1,4.3-1.3,6.5c-0.1,1.1-0.1,2-0.1,2.5s0.1,1,0.3,1.4
		s0.5,0.8,0.9,1.2c0.4,0.4,1,1.1,1.7,2c-0.9,0.5-1.8,0.7-2.7,0.5c-0.8-0.2-1.5-0.6-2.1-1.2c-0.6-0.7-1-1.6-1.2-2.7
		C224.1,77.6,224.2,76.4,224.5,75z"/>
	<path class="st6" d="M237,75.3c-0.6-1.6-0.8-3.2-0.6-4.8c0.2-1.5,0.6-3,1.2-4.3c0.6-1.3,1.5-2.5,2.4-3.6c1-1.1,2-2,3.1-2.8
		s2.2-1.3,3.3-1.7s2.1-0.5,2.9-0.4s1.5,0.5,1.9,1.1s0.5,1.5,0.3,2.8c-0.1,1.6-0.6,3.1-1.7,4.2c-1,1.2-2.1,2.2-3.4,3.1
		c-1.2,0.9-2.3,1.7-3.3,2.5c-1,0.7-1.5,1.4-1.6,2.1c0,0.4,0.2,0.7,0.6,0.9c0.4,0.2,0.9,0.4,1.4,0.6c0.5,0.1,1.1,0.2,1.6,0.3
		c0.5,0.1,0.9,0.1,1.2,0.2c3.7-0.6,6.5-1,8.4-1.1s3,0,3.5,0.2c0.5,0.3,0.4,0.6-0.3,1.1c-0.7,0.5-1.7,0.9-3.1,1.4s-2.9,0.8-4.7,1.2
		c-1.8,0.3-3.6,0.5-5.3,0.4c-1.7,0-3.3-0.3-4.8-0.8C238.7,77.4,237.6,76.5,237,75.3z M248.1,61.4c-0.8,0-1.5,0.2-2.3,0.6
		c-0.7,0.4-1.4,1-2,1.6s-1.1,1.4-1.6,2.2c-0.4,0.8-0.8,1.6-1,2.3c0.1,0,0.1,0.1,0.2,0.1h0.2c0.5,0,1.2-0.2,1.9-0.7s1.4-1.1,2.1-1.8
		c0.7-0.7,1.2-1.4,1.7-2.2C247.8,62.7,248,62,248.1,61.4z"/>
</g>
<g class="st5">
	<path class="st7" d="M224.5,75c0.1-2.5,0.6-4.9,1.3-7.4s1.6-4.9,2.7-7.3c1.1-2.4,2.2-4.7,3.4-7c1.2-2.2,2.3-4.4,3.3-6.3v-0.8
		c-0.5,0.5-1.2,1.2-2.2,2.3c-1,1-2.1,2.2-3.3,3.5s-2.5,2.7-3.9,4.1c-1.4,1.4-2.7,2.8-3.9,4.1s-2.3,2.5-3.3,3.5s-1.7,1.8-2.1,2.3
		c-0.5,0.5-0.9,1.2-1.4,2.2c-0.4,1-0.9,2-1.5,2.9c-0.5,1-1.1,1.8-1.7,2.6c-0.6,0.7-1.3,1.1-2,1c-0.6,0-1-0.1-1.4-0.3
		c-0.3-0.1-0.6-0.4-0.7-0.6c-0.1-0.3-0.2-0.6-0.2-1.1c0-0.4,0-0.9,0-1.5c0.2-3.1,0.8-6.1,1.8-9s2.1-5.8,3.2-8.8v-0.8
		c-0.1,0.1-0.2,0.2-0.4,0.4s-0.3,0.3-0.4,0.4c-1,1.5-2.1,3.1-3.1,4.8c-1.1,1.7-2.2,3.4-3.3,5c-1.2,1.7-2.4,3.2-3.7,4.7
		s-2.7,2.8-4.2,3.9s-3.1,2-4.8,2.6s-3.6,0.9-5.6,0.8c-0.4,0-1-0.1-1.7-0.2s-1.4-0.2-2.1-0.5c-0.7-0.2-1.2-0.6-1.7-1.1
		s-0.7-1.2-0.6-2c0-0.3,0.2-0.8,0.6-1.3c0.4-0.5,0.7-0.9,1-1.1c0.5,1,0.9,1.7,1.3,2c0.4,0.3,0.9,0.5,1.6,0.6
		c1.2,0.1,2.4-0.1,3.8-0.4c1.3-0.3,2.6-0.8,3.9-1.4c1.3-0.6,2.5-1.3,3.6-2.2c1.1-0.8,2.1-1.7,2.9-2.6c0.6-0.8,1.4-1.9,2.3-3.1
		s1.9-2.7,2.9-4.2s2.1-3.1,3.2-4.7c1.1-1.6,2.2-3.1,3.2-4.6c1-1.4,2-2.7,2.9-3.9c0.9-1.1,1.6-2,2.3-2.5c0.5,0,1,0.1,1.2,0.4
		c0.3,0.2,0.4,0.5,0.5,0.8s0.1,0.7,0.1,1.2s-0.1,1-0.1,1.5c-0.1,1.8-0.4,3.5-1,5.2s-1.2,3.3-1.9,4.8c-0.7,1.6-1.3,3.1-1.9,4.6
		c-0.6,1.5-0.9,3-1,4.5c0,0.1,0,0.2,0,0.4c0,0.2,0,0.4,0,0.4c3.9-4.2,7.3-7.8,10.2-10.9c2.8-3.1,5.3-5.7,7.2-7.8
		c2-2.2,3.6-3.9,4.9-5.3c1.3-1.4,2.3-2.4,3-3.1c0.7-0.7,1.3-1.3,1.7-1.5c0.4-0.3,0.7-0.4,0.9-0.4c0.4,0,0.7,0.2,0.9,0.4
		c0.2,0.3,0.3,0.6,0.3,0.9c0,0.3,0,0.7,0,1.1c0,0.4-0.1,0.7-0.1,0.9c-0.1,1.8-0.5,3.6-1.2,5.4c-0.7,1.8-1.6,3.6-2.6,5.5
		s-2.1,3.8-3.3,5.7s-2.3,3.9-3.3,5.9c-1,2-1.9,4.1-2.6,6.2c-0.7,2.1-1.1,4.3-1.3,6.5c-0.1,1.1-0.1,2-0.1,2.5s0.1,1,0.3,1.4
		s0.5,0.8,0.9,1.2c0.4,0.4,1,1.1,1.7,2c-0.9,0.5-1.8,0.7-2.7,0.5c-0.8-0.2-1.5-0.6-2.1-1.2c-0.6-0.7-1-1.6-1.2-2.7
		C224.1,77.6,224.2,76.4,224.5,75z"/>
	<path class="st7" d="M237,75.3c-0.6-1.6-0.8-3.2-0.6-4.8c0.2-1.5,0.6-3,1.2-4.3c0.6-1.3,1.5-2.5,2.4-3.6c1-1.1,2-2,3.1-2.8
		s2.2-1.3,3.3-1.7s2.1-0.5,2.9-0.4s1.5,0.5,1.9,1.1s0.5,1.5,0.3,2.8c-0.1,1.6-0.6,3.1-1.7,4.2c-1,1.2-2.1,2.2-3.4,3.1
		c-1.2,0.9-2.3,1.7-3.3,2.5c-1,0.7-1.5,1.4-1.6,2.1c0,0.4,0.2,0.7,0.6,0.9c0.4,0.2,0.9,0.4,1.4,0.6c0.5,0.1,1.1,0.2,1.6,0.3
		c0.5,0.1,0.9,0.1,1.2,0.2c3.7-0.6,6.5-1,8.4-1.1s3,0,3.5,0.2c0.5,0.3,0.4,0.6-0.3,1.1c-0.7,0.5-1.7,0.9-3.1,1.4s-2.9,0.8-4.7,1.2
		c-1.8,0.3-3.6,0.5-5.3,0.4c-1.7,0-3.3-0.3-4.8-0.8C238.7,77.4,237.6,76.5,237,75.3z M248.1,61.4c-0.8,0-1.5,0.2-2.3,0.6
		c-0.7,0.4-1.4,1-2,1.6s-1.1,1.4-1.6,2.2c-0.4,0.8-0.8,1.6-1,2.3c0.1,0,0.1,0.1,0.2,0.1h0.2c0.5,0,1.2-0.2,1.9-0.7s1.4-1.1,2.1-1.8
		c0.7-0.7,1.2-1.4,1.7-2.2C247.8,62.7,248,62,248.1,61.4z"/>
</g>
<path id="XMLID_79_" class="st8" d="M209.2,24.2c0,2-1.7,3.7-3.7,3.7s-3.7-1.7-3.7-3.7s1.7-3.7,3.7-3.7
	C207.6,20.5,209.2,22.2,209.2,24.2z"/>
<path id="XMLID_78_" class="st8" d="M71.4,15.2c0,2-1.7,3.7-3.7,3.7S64,17.2,64,15.2s1.7-3.7,3.7-3.7S71.4,13.2,71.4,15.2z"/>
<polygon class="st4" points="61.5,100.5 77.7,100.5 59.5,125.1 "/>
<polygon class="st4" points="189.4,99.8 205.5,99.8 187.3,125.1 "/>
</svg>
