<?xml version="1.0" encoding="utf-8"?>
<!-- Generator: Adobe Illustrator 23.0.1, SVG Export Plug-In . SVG Version: 6.00 Build 0)  -->
<svg version="1.1" id="OBJECTS" xmlns="http://www.w3.org/2000/svg" xmlns:xlink="http://www.w3.org/1999/xlink" x="0px" y="0px"
	 viewBox="0 0 269.4 144.9" style="enable-background:new 0 0 269.4 144.9;" xml:space="preserve">
<style type="text/css">
	.st0{fill:none;}
	.st1{fill:#C6780F;}
	.st2{fill:#F0A648;}
	.st3{fill:#E59E3F;}
	.st4{fill:#D88417;}
	.st5{fill:#6D3A17;}
	.st6{fill:#7E421C;}
	.st7{fill:#613316;}
	.st8{fill:url(#XMLID_9_);}
	.st9{fill:url(#XMLID_10_);}
	.st10{fill:url(#XMLID_11_);}
	.st11{fill:url(#XMLID_12_);}
	.st12{fill:url(#XMLID_13_);}
	.st13{fill:url(#XMLID_14_);}
	.st14{fill:url(#XMLID_15_);}
	.st15{enable-background:new    ;}
	.st16{fill:#FFFFFF;}
	.st17{fill:#FFFFFF;stroke:#FFFFFF;stroke-width:0.5669;stroke-miterlimit:10;}
	.st18{fill:#5C4227;}
</style>
<pattern  y="120.3" width="34.3" height="34.3" patternUnits="userSpaceOnUse" id="XMLID_2_" viewBox="0 -34.3 34.3 34.3" style="overflow:visible;">
	<g>
		<rect y="-34.3" class="st0" width="34.3" height="34.3"/>
		<g>
			<rect y="-34.3" class="st0" width="34.3" height="34.3"/>
			<g>
				<rect y="-34.3" class="st1" width="34.3" height="34.3"/>
			</g>
		</g>
	</g>
</pattern>
<pattern  y="120.3" width="34.3" height="34.3" patternUnits="userSpaceOnUse" id="XMLID_3_" viewBox="0 -34.3 34.3 34.3" style="overflow:visible;">
	<g>
		<rect y="-34.3" class="st0" width="34.3" height="34.3"/>
		<g>
			<rect y="-34.3" class="st0" width="34.3" height="34.3"/>
			<rect y="-34.3" class="st2" width="34.3" height="34.3"/>
		</g>
	</g>
</pattern>
<pattern  y="120.3" width="34.3" height="34.3" patternUnits="userSpaceOnUse" id="XMLID_4_" viewBox="0 -34.3 34.3 34.3" style="overflow:visible;">
	<g>
		<rect y="-34.3" class="st0" width="34.3" height="34.3"/>
		<g>
			<rect y="-34.3" class="st0" width="34.3" height="34.3"/>
			<g>
				<rect y="-34.3" class="st3" width="34.3" height="34.3"/>
			</g>
		</g>
	</g>
</pattern>
<pattern  y="120.3" width="34.3" height="34.3" patternUnits="userSpaceOnUse" id="XMLID_5_" viewBox="0 -34.3 34.3 34.3" style="overflow:visible;">
	<g>
		<rect y="-34.3" class="st0" width="34.3" height="34.3"/>
		<g>
			<rect y="-34.3" class="st0" width="34.3" height="34.3"/>
			<g>
				<rect y="-34.3" class="st3" width="34.3" height="34.3"/>
			</g>
		</g>
	</g>
</pattern>
<pattern  y="120.3" width="34.3" height="34.3" patternUnits="userSpaceOnUse" id="XMLID_6_" viewBox="0 -34.3 34.3 34.3" style="overflow:visible;">
	<g>
		<rect y="-34.3" class="st0" width="34.3" height="34.3"/>
		<g>
			<rect y="-34.3" class="st0" width="34.3" height="34.3"/>
			<g>
				<rect y="-34.3" class="st3" width="34.3" height="34.3"/>
			</g>
		</g>
	</g>
</pattern>
<pattern  y="120.3" width="34.3" height="34.3" patternUnits="userSpaceOnUse" id="XMLID_7_" viewBox="0 -34.3 34.3 34.3" style="overflow:visible;">
	<g>
		<rect y="-34.3" class="st0" width="34.3" height="34.3"/>
		<g>
			<rect y="-34.3" class="st0" width="34.3" height="34.3"/>
			<g>
				<rect y="-34.3" class="st4" width="34.3" height="34.3"/>
			</g>
		</g>
	</g>
</pattern>
<pattern  y="120.3" width="34.3" height="34.3" patternUnits="userSpaceOnUse" id="XMLID_8_" viewBox="0 -34.3 34.3 34.3" style="overflow:visible;">
	<g>
		<rect y="-34.3" class="st0" width="34.3" height="34.3"/>
		<g>
			<rect y="-34.3" class="st0" width="34.3" height="34.3"/>
			<g>
				<rect y="-34.3" class="st4" width="34.3" height="34.3"/>
			</g>
		</g>
	</g>
</pattern>
<path class="st5" d="M91.8,144.9V55.3l-28.2-8.8l-4.1,98.3H91.8z"/>
<polygon class="st6" points="63.6,46.6 59.5,144.9 59.5,144.9 "/>
<polygon class="st5" points="91.8,55.3 63.6,46.6 91.8,55.3 "/>
<path class="st7" d="M71.6,70.6c0,0.1,0,0.1,0,0.2c0,0,0,0,0,0L71.6,70.6z"/>
<path class="st7" d="M81.1,78.6c0,1.1-0.2,2.3-0.3,3.4c-0.1,1.1-0.1,2.3-0.1,3.4c0,1.1-0.1,2.3,0,3.4c0,0.6,0,1.1,0.1,1.7
	c0,0.6,0.1,1.1,0.1,1.7c0.1,1.1,0.2,2.3,0.4,3.4c0.2,1.1,0.4,2.3,0.7,3.4l0.2,0c0.2-1.1,0.4-2.3,0.5-3.4c0.1-1.1,0.2-2.3,0.2-3.4
	c0-0.6,0-1.1,0-1.7c0-0.6,0-1.1,0-1.7c0-1.1-0.1-2.3-0.2-3.4c-0.1-1.1-0.2-2.3-0.3-3.4c-0.2-1.1-0.3-2.3-0.5-3.4
	c-0.1-1.1-0.1-2.3-0.1-3.4c0.1-1.1,0.2-2.3,0.3-3.4l0,0.1c0.2-0.8,0.4-1.6,0.5-2.4c0.1-0.8,0.2-1.6,0.3-2.4c0.1-0.8,0.1-1.6,0.1-2.5
	c0-0.8,0-1.7-0.1-2.5l-0.2,0c-0.3,0.8-0.6,1.6-0.8,2.4c-0.2,0.8-0.4,1.6-0.6,2.4c-0.2,0.8-0.3,1.6-0.5,2.4c-0.1,0.8-0.2,1.6-0.3,2.4
	l0,0.1c0.2,1.1,0.4,2.3,0.5,3.4C81.1,76.3,81.2,77.5,81.1,78.6z"/>
<g id="XMLID_80_">
	<pattern  id="XMLID_9_" xlink:href="#XMLID_2_" patternTransform="matrix(0.9899 0.1419 0.1908 -1.3315 -416.3529 -21241.5469)">
	</pattern>
	<polygon id="XMLID_87_" class="st8" points="37,95.9 238.1,120.3 254.3,96.7 254.7,90.9 248.8,85.6 253.7,90 259.7,89.6 
		268.4,76.3 269.4,69.3 235,46.9 249.8,42.6 250.7,35.9 59.4,8.5 34.8,12.9 53.8,32.8 5.2,37.4 1.3,40.5 16.8,64.4 36,69.6 25,69 
		24,75.6 	"/>
	<pattern  id="XMLID_10_" xlink:href="#XMLID_3_" patternTransform="matrix(0.9899 0.1419 0.1908 -1.3315 -416.3529 -21241.5469)">
	</pattern>
	<polygon id="XMLID_86_" class="st9" points="37.6,89.1 239.4,113.7 254.7,90.9 248.8,85.6 258.7,85.1 269.4,69.3 252.7,39.6 
		234.8,39.8 250.7,35.9 250,25.4 49.3,1 34.8,12.9 49.8,19 28,18.5 5.2,37.4 18.7,58.9 59.3,71 25,69 	"/>
	<pattern  id="XMLID_11_" xlink:href="#XMLID_4_" patternTransform="matrix(0.9899 0.1419 0.1908 -1.3315 -416.3529 -21241.5469)">
	</pattern>
	<path id="XMLID_85_" class="st10" d="M224.6,41c-4.4-0.7-8.7-1.4-13.1-2.3c-4.3-0.9-8.7-1.8-13-2.9c-2.2-0.5-4.3-1.1-6.4-1.7
		l-6.4-1.9c-2.1-0.6-4.3-1.3-6.4-1.9c-2.1-0.6-4.3-1.1-6.4-1.6l0,0c-2.8-0.1-5.6-0.1-8.4-0.1l-8.4,0.1c-5.6,0-11.1,0-16.7-0.1h-0.1
		h-0.1l-5.3-1l-5.3-1c-3.5-0.7-7.1-1.5-10.6-2.3s-7.1-1.6-10.6-2.5s-7-1.8-10.5-2.8v-0.3c3.6,0.4,7.2,0.9,10.8,1.4
		c3.6,0.5,7.1,1.1,10.7,1.7s7.1,1.2,10.7,1.9l5.3,1l5.3,1.1h-0.1c5.6,0.3,11.1,0.5,16.6,0.9l8.3,0.6c2.8,0.2,5.5,0.4,8.3,0.5l0,0
		l0,0c2.1,0.5,4.3,1,6.5,1.5s4.3,0.8,6.5,1.3l6.5,1.3c2.2,0.4,4.3,0.9,6.5,1.5c4.3,1.1,8.6,2.2,12.9,3.4c4.3,1.2,8.5,2.5,12.7,3.9
		L224.6,41z"/>
	<pattern  id="XMLID_12_" xlink:href="#XMLID_5_" patternTransform="matrix(0.9899 0.1419 0.1908 -1.3315 -416.3529 -21241.5469)">
	</pattern>
	<path id="XMLID_84_" class="st11" d="M178.2,46.3c-2.4,0-4.7-0.2-7.1-0.4c-1.2-0.1-2.3-0.2-3.5-0.4c-1.2-0.1-2.3-0.3-3.5-0.4
		c-2.3-0.3-4.7-0.7-7-1.1c-2.3-0.4-4.6-0.8-6.9-1.3c-4.6-1-9.1-2.5-13.7-3.6c-2.3-0.5-4.6-1-6.9-1.4c-2.3-0.4-4.6-0.7-7-1h0.1
		l-7,0.1c-2.3,0-4.6,0-7-0.1l-6.9-0.2c-2.3-0.1-4.6-0.1-6.9-0.3h-0.2l-0.2-0.1c-1.3-0.5-2.6-1.1-3.9-1.6l-3.9-1.7
		c-1.3-0.6-2.6-1.2-3.9-1.8c-1.3-0.6-2.6-1.2-3.9-1.8c-2.6-1.2-5.1-2.5-7.7-3.8c-1.3-0.7-2.5-1.3-3.8-2s-2.5-1.4-3.8-2.1l0.1-0.4
		c1.4,0.3,2.7,0.8,4,1.1c1.3,0.4,2.7,0.8,4,1.2c2.7,0.9,5.3,1.8,8,2.7c1.3,0.5,2.6,1,4,1.4c1.3,0.5,2.6,1,3.9,1.5l3.9,1.5
		c1.3,0.5,2.6,1.1,3.9,1.6L95.3,32c2.3,0.1,4.6,0.4,6.9,0.6l6.9,0.6c2.3,0.2,4.6,0.5,6.9,0.8l6.9,0.9h0.1c2.3,0.6,4.6,1.1,6.9,1.6
		s4.6,0.9,6.9,1.2c4.7,0.7,9.4,0.9,14,1.6c2.3,0.3,4.6,0.8,6.9,1.2c2.3,0.5,4.6,1,6.9,1.5c1.1,0.3,2.3,0.6,3.4,0.9
		c1.1,0.3,2.3,0.6,3.4,0.9c2.3,0.6,4.5,1.3,6.8,2.1L178.2,46.3z"/>
	<pattern  id="XMLID_13_" xlink:href="#XMLID_6_" patternTransform="matrix(0.9899 0.1419 0.1908 -1.3315 -416.3529 -21241.5469)">
	</pattern>
	<path id="XMLID_83_" class="st12" d="M226.2,67.4c-1.4-0.2-2.7-0.5-4-0.9c-1.3-0.3-2.7-0.7-4-1.1s-2.6-0.8-3.9-1.3
		c-1.3-0.4-2.6-0.9-3.9-1.4c-0.6-0.2-1.3-0.5-1.9-0.7c-0.6-0.3-1.3-0.5-1.9-0.8c-1.3-0.6-2.5-1.2-3.8-1.8c-2.5-1.3-5-2.7-7.5-3.8
		h0.2c-1.4,0.1-2.8,0.3-4.1,0.5c-1.4,0.2-2.8,0.5-4.1,0.8c-2.8,0.6-5.5,1.3-8.3,1.9c-1.4,0.3-2.8,0.5-4.1,0.8l-4.1,0.7
		c-1.4,0.2-2.8,0.5-4.1,0.7l-2.1,0.3c-0.7,0.1-1.4,0.2-2.1,0.3h-0.2h-0.1c-1.8-0.3-3.6-0.5-5.3-0.9c-1.8-0.3-3.6-0.7-5.3-1
		c-1.8-0.4-3.5-0.8-5.3-1.2c-0.9-0.2-1.8-0.5-2.6-0.7c-0.9-0.2-1.8-0.5-2.6-0.8l0.1-0.4c0.9-0.1,1.8-0.1,2.7-0.1s1.8-0.1,2.7,0
		c1.8,0,3.6,0,5.4,0.1c1.8,0.1,3.6,0.2,5.4,0.3c1.8,0.1,3.6,0.3,5.4,0.5h-0.3c0.7-0.1,1.4-0.2,2.1-0.3l2.1-0.3
		c1.4-0.2,2.8-0.3,4.1-0.4l4.1-0.4c1.4-0.1,2.8-0.2,4.1-0.3c2.8-0.2,5.5-0.2,8.3-0.3c1.4-0.1,2.8-0.2,4.1-0.3
		c1.4-0.1,2.8-0.3,4.1-0.6h0.1h0.1c2.6,0.9,5.3,1.6,7.9,2.3c1.3,0.4,2.6,0.8,3.9,1.2c0.7,0.2,1.3,0.5,1.9,0.7
		c0.6,0.2,1.3,0.5,1.9,0.8c1.3,0.6,2.6,1.1,3.8,1.7c1.3,0.6,2.5,1.2,3.8,1.8s2.5,1.3,3.7,2c1.2,0.7,2.5,1.4,3.7,2.2L226.2,67.4z"/>
	<pattern  id="XMLID_14_" xlink:href="#XMLID_7_" patternTransform="matrix(0.9899 0.1419 0.1908 -1.3315 -416.3529 -21241.5469)">
	</pattern>
	<path id="XMLID_82_" class="st13" d="M181.3,78.7c-2.1-0.4-4.2-0.8-6.3-1.2c-2.1-0.4-4.2-0.8-6.3-1.3c-4.2-0.9-8.4-1.8-12.5-2.8
		c-4.2-1-8.3-1.9-12.5-3l-6.2-1.6l-6.2-1.7h0.4c-2.4,0.2-4.9,0.5-7.3,0.6l-7.3,0.5l-7.3,0.5c-2.4,0.2-4.9,0.3-7.3,0.5l0,0
		c-0.1,0-0.1,0-0.2,0c-1.8-0.7-3.5-1.4-5.3-2c-1.8-0.7-3.5-1.3-5.3-1.9c-3.6-1.2-7.1-2.5-10.7-3.7s-7.1-2.4-10.7-3.5l-10.8-3.4
		l1.3-2.2l3.3,7.4c0.6,1.2,1.1,2.5,1.7,3.7s1.2,2.4,1.8,3.6c0.6,1.2,1.3,2.3,1.8,3.6c0.6,1.2,1.1,2.5,1.6,3.7c1,2.6,1.8,5.3,2.8,7.8
		l-1.3-1c1.7,0,3.4-0.1,5-0.2c1.7-0.1,3.4-0.2,5.1-0.3l10.1-0.7l5.1-0.4c1.7-0.1,3.4-0.2,5-0.2c3.4-0.1,6.7,0,10.1,0l-0.6,4.3
		l-14.7-6.4c-4.9-2.1-9.8-4.3-14.7-6.4l0.1-0.4c5.1,1.5,10.2,2.9,15.2,4.5l15.2,4.5c0.9,0.3,1.3,1.4,1.1,2.6c-0.2,1-0.9,1.6-1.6,1.7
		h-0.1c-3.4,0.3-6.8,0.8-10.1,0.9c-1.7,0.1-3.4,0.2-5,0.2l-5,0.1l-10.1,0.1c-1.7,0-3.4,0.1-5,0.1c-1.7,0.1-3.4,0.1-5,0.2
		c-0.6,0-1-0.3-1.3-0.9v-0.1c-1.1-2.5-2.4-4.8-3.5-7.2c-0.6-1.2-1.1-2.5-1.6-3.8s-0.9-2.6-1.3-4c-0.4-1.3-0.9-2.7-1.3-4
		c-0.5-1.3-1-2.6-1.5-3.8l-3-7.7v-0.1c-0.3-0.7,0-1.6,0.5-2c0.3-0.2,0.6-0.3,0.9-0.2l10.6,4.2c3.5,1.4,7.1,2.7,10.6,4.1
		c3.5,1.3,7.1,2.6,10.6,3.9c1.8,0.7,3.6,1.3,5.3,1.9c1.8,0.6,3.6,1.2,5.4,1.8h-0.2c2.4-0.3,4.9-0.7,7.3-1.1l7.3-1.1l7.3-1.1
		c2.4-0.4,4.9-0.7,7.3-1c0.1,0,0.2,0,0.3,0l0,0l6.2,1.6l6.2,1.7c4.1,1.1,8.3,2.3,12.4,3.5c4.1,1.2,8.2,2.4,12.3,3.7
		c2.1,0.6,4.1,1.3,6.1,2s4.1,1.3,6.1,2.1L181.3,78.7z"/>
	<pattern  id="XMLID_15_" xlink:href="#XMLID_8_" patternTransform="matrix(0.9899 0.1419 0.1908 -1.3315 -416.3529 -21241.5469)">
	</pattern>
	<path id="XMLID_81_" class="st14" d="M210.3,99.1c-1.5-0.5-2.9-1.1-4.3-1.7c-1.4-0.6-2.9-1.2-4.3-1.9c-1.4-0.7-2.8-1.3-4.2-2
		s-2.8-1.3-4.2-2.1l0.3,0.1c-2.2,0-4.4,0.1-6.6,0c-2.2,0-4.4-0.1-6.6-0.1c-2.2-0.1-4.4-0.2-6.6-0.4c-2.2-0.2-4.4-0.4-6.6-0.7
		c2.2-0.4,4.4-0.6,6.6-0.8c2.2-0.2,4.4-0.3,6.6-0.4c2.2-0.1,4.4-0.2,6.6-0.2c2.2-0.1,4.4,0,6.6,0h0.2L194,89
		c1.4,0.7,2.7,1.6,4.1,2.3c1.4,0.8,2.7,1.6,4.1,2.4c1.3,0.8,2.7,1.7,4,2.6C207.7,97.2,209,98.1,210.3,99.1z"/>
</g>
<g class="st15">
	<path class="st16" d="M59.6,66.3c0.1-1.1,0.2-2.1,0.4-3.2c0.2-1,0.4-2.1,0.6-3.1c0.2-1,0.4-2.1,0.6-3.1c0.2-1.1,0.3-2.2,0.4-3.3
		c-1.3-0.1-2.4-0.1-3.4,0c-0.9,0.1-1.9,0.2-2.8,0.2c-0.9,0.1-1.9,0.1-2.9,0.1c-1,0-2.3-0.1-3.7-0.2c-1.1,1.2-2.4,2.5-3.8,3.9
		c-1.4,1.4-2.9,2.6-4.5,3.8c-1.6,1.1-3.3,2.1-5,2.8c-1.7,0.7-3.5,1.1-5.2,1c-1.2-0.1-2.3-0.3-3.4-0.8c-1.1-0.5-2-1.1-2.8-1.9
		s-1.4-1.8-1.8-2.9c-0.4-1.1-0.6-2.3-0.5-3.6c0-0.7,0.2-1.2,0.4-1.5c0.2-0.3,0.7-0.5,1.4-0.5c0.4,0,0.6,0.4,0.9,1.1s0.6,1.5,1,2.4
		c0.4,0.9,0.9,1.7,1.6,2.4s1.6,1.1,2.8,1.2c1.5,0.1,3-0.1,4.4-0.7c1.5-0.5,2.9-1.2,4.2-2.1c1.4-0.9,2.7-1.9,3.9-3
		c1.2-1.1,2.3-2.2,3.3-3.3c-0.1-1.1-0.4-1.9-0.9-2.4c-0.6-0.5-1.2-1.1-1.8-1.6c-0.6-0.5-1.2-1.2-1.6-2.1c-0.5-0.9-0.6-2.2-0.6-4
		c0.1-2.6,1-4.6,2.5-5.9c1.5-1.4,3.6-2,6.1-1.9c0.7,0,1.5,0.2,2.2,0.4c0.7,0.2,1.4,0.4,2.2,0.7c0.7,0.3,1.5,0.5,2.2,0.7
		c0.7,0.2,1.4,0.3,2.2,0.4c0.5,0,0.9,0,1.2-0.1c0.3-0.1,0.6-0.3,0.8-0.5c0.3-0.2,0.5-0.6,0.8-1c0.3-0.4,0.7-0.9,1.1-1.5
		c0.3-0.3,0.6-0.8,1.2-1.6c0.5-0.7,1.1-1.5,1.8-2.4c0.6-0.9,1.3-1.8,2-2.8c0.7-1,1.4-1.9,2-2.8c0.6-0.9,1.2-1.7,1.7-2.4
		c0.5-0.7,0.9-1.2,1.1-1.6c0.5-0.4,0.9-0.6,1.2-0.7c0.4-0.1,0.8-0.1,1.2-0.1c0.5,0,0.8,0.2,1,0.6c0.2,0.4,0.3,0.8,0.4,1.3
		c0,0.5,0,1,0,1.6c0,0.5-0.1,0.9-0.1,1.2c0,0.1,0,0.3,0,0.6c0,0.3,0,0.6-0.1,0.9s-0.1,0.6-0.1,0.9c0,0.3,0,0.5,0,0.5
		c-0.1,0.4-0.4,1-0.7,1.9c-0.3,0.8-0.6,1.8-1,2.8c-0.4,1.1-0.8,2.2-1.2,3.3c-0.4,1.2-0.8,2.3-1.1,3.4c-0.4,1.1-0.7,2-1,2.9
		c-0.3,0.8-0.5,1.5-0.6,1.9c-0.1,0.2-0.1,0.5-0.2,1c-0.1,0.5-0.2,1-0.3,1.5c-0.1,0.5-0.2,1-0.3,1.5c-0.1,0.5-0.2,0.8-0.2,0.9
		c0.3,0.1,0.7,0.3,1,0.4c0.3,0.2,0.5,0.5,0.5,0.9c0,0.4-0.2,0.8-0.5,1c-0.3,0.2-0.7,0.5-1.1,0.6c-0.4,0.2-0.8,0.4-1.1,0.7
		c-0.4,0.3-0.6,0.7-0.6,1.2c-0.1,0.5-0.3,1.4-0.6,2.7c-0.3,1.3-0.6,2.7-0.9,4.2c-0.3,1.5-0.6,2.9-0.9,4.2c-0.3,1.3-0.5,2.2-0.6,2.7
		c0,0.1-0.1,0.4-0.3,0.7s-0.3,0.7-0.5,1c-0.2,0.3-0.3,0.6-0.5,0.9c-0.2,0.3-0.3,0.5-0.4,0.6c-0.9-0.3-1.7-0.6-2.3-0.9
		C59.8,68,59.5,67.3,59.6,66.3z M43.3,41.1c0,0.6,0.1,1.3,0.5,2.1c0.4,0.8,0.8,1.5,1.4,2.2s1.2,1.3,1.8,1.8c0.6,0.5,1.3,0.8,1.8,0.8
		c0.5,0,1.2-0.3,2-1c0.8-0.7,1.5-1.5,2.3-2.4c0.7-0.9,1.4-1.8,1.9-2.7s0.8-1.5,0.8-1.8c0-0.7-0.2-1.3-0.6-1.7
		c-0.4-0.4-0.9-0.7-1.6-0.8c-0.6-0.2-1.2-0.3-1.9-0.3c-0.7,0-1.2-0.1-1.6-0.1c-0.6,0-1.2,0-2,0.1c-0.8,0.1-1.5,0.2-2.2,0.5
		c-0.7,0.3-1.3,0.7-1.8,1.2C43.7,39.5,43.4,40.2,43.3,41.1z M59.9,41.9c-0.5,0-1.1,0.3-2,1c-0.9,0.7-1.8,1.5-2.6,2.4
		c-0.9,0.9-1.7,1.8-2.3,2.7c-0.7,0.9-1,1.6-1.1,2.1c0.2,0,0.7,0,1.4,0c0.7,0,1.4,0,2.2,0.1c0.8,0,1.5,0,2.2,0c0.7,0,1.2,0,1.4,0
		c0.2,0,0.4,0,0.7-0.1c0.3-0.1,0.7-0.1,1-0.2c0.3-0.1,0.6-0.1,0.9-0.2c0.3-0.1,0.4-0.1,0.5-0.2c0,0,0.1-0.1,0.1-0.4
		c0-0.3,0-0.5,0-0.7c0-0.3,0-0.9-0.1-1.6c-0.1-0.7-0.2-1.4-0.4-2.2c-0.2-0.7-0.4-1.4-0.7-1.9C60.8,42.2,60.4,41.9,59.9,41.9z
		 M61.2,38.8c0.8,1.1,1.5,2.4,2.2,3.7c0.7,1.3,1.3,2.6,1.9,4l6.3-20L61.2,38.8z"/>
	<path class="st16" d="M72.9,64.1c0-0.5,0.2-1.2,0.5-1.8c0.3-0.7,0.7-1.1,1.3-1.3c0.1,0,0.2-0.1,0.3-0.1c0.1,0,0.3,0,0.4-0.1
		c0.2,0,0.3,0,0.4,0l-0.2,3.5c0.3-0.2,0.6-0.7,1.2-1.3c0.5-0.6,1.1-1.4,1.6-2.1c0.6-0.8,1.1-1.5,1.6-2.2c0.5-0.7,0.8-1.2,1-1.5
		l15.3-28c0.5-0.5,0.8-0.8,1.1-0.9c0.3-0.1,0.6,0,1,0.2c0.3,0.2,0.6,0.8,0.9,1.7L90,47.7l0,0.8c1.1,0.2,2.1,0.5,3,0.9
		c0.9,0.4,1.7,0.9,2.4,1.5c0.7,0.6,1.2,1.4,1.5,2.3c0.3,0.9,0.5,1.9,0.4,3.2c-0.1,2.1-0.7,4-1.8,5.7c-1.1,1.7-2.5,3.2-4.1,4.5
		c-1.6,1.2-3.4,2.2-5.4,2.9c-1.9,0.7-3.8,1-5.6,0.9c-0.8,0-1.6-0.2-2.5-0.5c-0.9-0.3-1.7-0.7-2.4-1.2c-0.7-0.5-1.4-1.2-1.8-1.9
		C73.1,65.9,72.8,65,72.9,64.1z M90.3,52.5c-0.5,0-1.2,0.2-1.8,0.7c-0.7,0.5-1.4,1.2-2,2c-0.7,0.8-1.3,1.8-2,2.8
		c-0.6,1-1.2,2.1-1.7,3.1c-0.5,1-0.9,2-1.2,2.9c-0.3,0.9-0.5,1.6-0.5,2.2c1.1,0.1,2.4-0.2,3.8-0.6c1.4-0.5,2.7-1.1,4-2
		c1.2-0.8,2.3-1.8,3.2-3c0.9-1.2,1.3-2.4,1.4-3.7c0.1-1.1-0.1-2.2-0.5-3C92.4,53.1,91.6,52.6,90.3,52.5z"/>
	<path class="st16" d="M100,65.9c0-0.2,0-0.5,0.1-1c0-0.5,0.1-0.9,0.1-1c1.4-3,3.2-5.8,5.3-8.3c2.1-2.5,4.4-4.7,7-6.6
		c0.1,0,0.2,0,0.4-0.1c0.2-0.1,0.3-0.1,0.4-0.1c1.1,0.1,1.9,0.3,2.6,0.9c0.7,0.5,1.2,1.2,1.5,2c0.4,0.8,0.6,1.7,0.7,2.6
		c0.1,1,0.1,1.9,0.1,2.8c-0.1,1.6-0.5,3.4-1.3,5.1c-0.8,1.8-1.8,3.4-3.1,4.8c-1.3,1.4-2.7,2.6-4.3,3.5s-3.2,1.3-4.8,1.2
		c-1.6-0.1-2.9-0.6-3.6-1.6C100.2,69,99.9,67.6,100,65.9z M104.6,65.4c0,0.5,0.1,0.8,0.5,1c0.3,0.2,0.7,0.3,1,0.3
		c1,0.1,2-0.2,2.9-0.7c1-0.5,1.8-1.2,2.6-2c0.8-0.8,1.4-1.8,1.9-2.8c0.5-1,0.8-2,0.8-3c0-0.5,0-1,0-1.6c0-0.6-0.1-1.1-0.3-1.5
		c-0.2-0.5-0.5-0.8-0.9-1.1c-0.4-0.3-1-0.3-1.7-0.2c-0.6,0.1-1.2,0.6-2,1.5c-0.8,0.9-1.5,2-2.2,3.3c-0.7,1.3-1.3,2.5-1.8,3.8
		C104.9,63.7,104.6,64.7,104.6,65.4z"/>
	<path class="st16" d="M120.1,69.2c0-0.6,0.3-1.5,0.7-2.7c0.4-1.1,0.9-2.4,1.6-3.7c0.6-1.3,1.4-2.7,2.2-4c0.8-1.4,1.6-2.6,2.4-3.7
		c0.8-1.1,1.6-2,2.3-2.7c0.7-0.7,1.3-1,1.8-1c1.1,0.1,1.6,0.7,1.6,1.8c0,0.5-0.1,0.9-0.3,1.3c-0.2,0.3-0.4,0.6-0.7,0.9
		c-0.3,0.3-0.5,0.6-0.8,0.8c-0.3,0.3-0.5,0.6-0.8,0.9c-0.4,0.6-0.9,1.5-1.4,2.5c-0.6,1.1-1.1,2.1-1.7,3.1c-0.5,1-1,1.9-1.4,2.7
		c-0.4,0.8-0.6,1.2-0.6,1.3l0,0.8c1.5-0.2,3.1-0.8,4.5-1.9c1.5-1,2.9-2.3,4.2-3.7c1.4-1.5,2.7-3,3.9-4.6c1.2-1.6,2.4-3.1,3.5-4.5
		c1.1-1.4,2.1-2.5,3.1-3.4c1-0.9,1.8-1.3,2.6-1.3c-0.1,1.6-0.5,3-1.1,4.2c-0.7,1.2-1.4,2.4-2.1,3.6c-0.8,1.2-1.5,2.4-2.1,3.7
		c-0.7,1.3-1,2.7-1.1,4.3c0,0.7,0.3,1.3,1.1,1.9c0.7,0.6,1.6,1.1,2.6,1.5c1,0.4,1.9,0.8,2.9,1c0.9,0.3,1.6,0.4,1.9,0.5l-0.1,1.6
		c-0.9,0-2-0.1-3.4-0.1s-2.7-0.3-4-0.7c-1.3-0.4-2.5-0.9-3.5-1.7s-1.7-1.8-2-3.2c-1.1,0.7-2.1,1.5-3.1,2.4c-1,0.9-2,1.8-3.1,2.6
		c-1,0.8-2.1,1.5-3.3,2c-1.1,0.5-2.3,0.8-3.6,0.7c-0.8,0-1.4-0.4-1.9-1.2C120.3,70.6,120,69.9,120.1,69.2z"/>
	<path class="st16" d="M148.2,67.7c0.1-1.2,0.3-2.4,0.8-3.6c0.5-1.2,1.1-2.4,1.7-3.6c0.7-1.2,1.3-2.3,2-3.5c0.7-1.1,1.2-2.3,1.6-3.4
		c-0.8,0.4-1.4,0.7-2,0.7c-0.5,0-1.2,0-1.9,0c-0.1,0-0.3,0-0.7-0.1c-0.4,0-0.7-0.1-0.8-0.1c0.3-0.9,0.8-1.7,1.4-2.4
		c0.7-0.7,1.4-1.3,2.3-1.8c0.8-0.5,1.7-0.9,2.6-1.2c0.9-0.3,1.7-0.6,2.4-0.7c1.3-1.9,2.4-3.9,3.2-5.8c0.9-2,1.7-3.9,2.6-5.8
		c0.9-1.9,1.9-3.7,3-5.4c1.1-1.7,2.6-3.2,4.5-4.6l0.2,2.4L162.7,47c0.4-0.1,1-0.2,1.6-0.3c0.6-0.1,1.3-0.2,1.9-0.3
		c0.7-0.1,1.3-0.2,1.9-0.2c0.6-0.1,1.1-0.2,1.6-0.3c0,0,0.2,0,0.4,0c0.2,0,0.4,0,0.5,0c0.5,0,1,0.2,1.3,0.4c0.3,0.2,0.6,0.7,0.8,1.4
		c-2.7,0.7-5.2,1.5-7.4,2.3c-2.2,0.8-4.2,1.9-5.8,3.3c-1.7,1.4-3.1,3.2-4.2,5.5c-1.1,2.2-2,5.2-2.6,8.7c0,0.8,0,1.5,0,2.1
		c0,0.6,0.5,1,1.4,1.2c0.9,0,1.8-0.1,2.6-0.4c0.8-0.3,1.6-0.7,2.4-1.1c0.8-0.4,1.5-0.8,2.3-1.1c0.8-0.3,1.6-0.5,2.5-0.4
		c-0.1,1-0.5,1.9-1.4,2.7s-1.9,1.5-3.1,2.1c-1.2,0.6-2.4,1-3.6,1.3c-1.2,0.3-2.2,0.4-3,0.3c-0.8,0-1.5-0.2-2.1-0.6
		c-0.6-0.4-1.1-0.9-1.5-1.4c-0.4-0.6-0.7-1.3-0.8-2C148.2,69.3,148.1,68.5,148.2,67.7z"/>
</g>
<g class="st15">
	<path class="st17" d="M59.6,66.3c0.1-1.1,0.2-2.1,0.4-3.2c0.2-1,0.4-2.1,0.6-3.1c0.2-1,0.4-2.1,0.6-3.1c0.2-1.1,0.3-2.2,0.4-3.3
		c-1.3-0.1-2.4-0.1-3.4,0c-0.9,0.1-1.9,0.2-2.8,0.2c-0.9,0.1-1.9,0.1-2.9,0.1c-1,0-2.3-0.1-3.7-0.2c-1.1,1.2-2.4,2.5-3.8,3.9
		c-1.4,1.4-2.9,2.6-4.5,3.8c-1.6,1.1-3.3,2.1-5,2.8c-1.7,0.7-3.5,1.1-5.2,1c-1.2-0.1-2.3-0.3-3.4-0.8c-1.1-0.5-2-1.1-2.8-1.9
		s-1.4-1.8-1.8-2.9c-0.4-1.1-0.6-2.3-0.5-3.6c0-0.7,0.2-1.2,0.4-1.5c0.2-0.3,0.7-0.5,1.4-0.5c0.4,0,0.6,0.4,0.9,1.1s0.6,1.5,1,2.4
		c0.4,0.9,0.9,1.7,1.6,2.4s1.6,1.1,2.8,1.2c1.5,0.1,3-0.1,4.4-0.7c1.5-0.5,2.9-1.2,4.2-2.1c1.4-0.9,2.7-1.9,3.9-3
		c1.2-1.1,2.3-2.2,3.3-3.3c-0.1-1.1-0.4-1.9-0.9-2.4c-0.6-0.5-1.2-1.1-1.8-1.6c-0.6-0.5-1.2-1.2-1.6-2.1c-0.5-0.9-0.6-2.2-0.6-4
		c0.1-2.6,1-4.6,2.5-5.9c1.5-1.4,3.6-2,6.1-1.9c0.7,0,1.5,0.2,2.2,0.4c0.7,0.2,1.4,0.4,2.2,0.7c0.7,0.3,1.5,0.5,2.2,0.7
		c0.7,0.2,1.4,0.3,2.2,0.4c0.5,0,0.9,0,1.2-0.1c0.3-0.1,0.6-0.3,0.8-0.5c0.3-0.2,0.5-0.6,0.8-1c0.3-0.4,0.7-0.9,1.1-1.5
		c0.3-0.3,0.6-0.8,1.2-1.6c0.5-0.7,1.1-1.5,1.8-2.4c0.6-0.9,1.3-1.8,2-2.8c0.7-1,1.4-1.9,2-2.8c0.6-0.9,1.2-1.7,1.7-2.4
		c0.5-0.7,0.9-1.2,1.1-1.6c0.5-0.4,0.9-0.6,1.2-0.7c0.4-0.1,0.8-0.1,1.2-0.1c0.5,0,0.8,0.2,1,0.6c0.2,0.4,0.3,0.8,0.4,1.3
		c0,0.5,0,1,0,1.6c0,0.5-0.1,0.9-0.1,1.2c0,0.1,0,0.3,0,0.6c0,0.3,0,0.6-0.1,0.9s-0.1,0.6-0.1,0.9c0,0.3,0,0.5,0,0.5
		c-0.1,0.4-0.4,1-0.7,1.9c-0.3,0.8-0.6,1.8-1,2.8c-0.4,1.1-0.8,2.2-1.2,3.3c-0.4,1.2-0.8,2.3-1.1,3.4c-0.4,1.1-0.7,2-1,2.9
		c-0.3,0.8-0.5,1.5-0.6,1.9c-0.1,0.2-0.1,0.5-0.2,1c-0.1,0.5-0.2,1-0.3,1.5c-0.1,0.5-0.2,1-0.3,1.5c-0.1,0.5-0.2,0.8-0.2,0.9
		c0.3,0.1,0.7,0.3,1,0.4c0.3,0.2,0.5,0.5,0.5,0.9c0,0.4-0.2,0.8-0.5,1c-0.3,0.2-0.7,0.5-1.1,0.6c-0.4,0.2-0.8,0.4-1.1,0.7
		c-0.4,0.3-0.6,0.7-0.6,1.2c-0.1,0.5-0.3,1.4-0.6,2.7c-0.3,1.3-0.6,2.7-0.9,4.2c-0.3,1.5-0.6,2.9-0.9,4.2c-0.3,1.3-0.5,2.2-0.6,2.7
		c0,0.1-0.1,0.4-0.3,0.7s-0.3,0.7-0.5,1c-0.2,0.3-0.3,0.6-0.5,0.9c-0.2,0.3-0.3,0.5-0.4,0.6c-0.9-0.3-1.7-0.6-2.3-0.9
		C59.8,68,59.5,67.3,59.6,66.3z M43.3,41.1c0,0.6,0.1,1.3,0.5,2.1c0.4,0.8,0.8,1.5,1.4,2.2s1.2,1.3,1.8,1.8c0.6,0.5,1.3,0.8,1.8,0.8
		c0.5,0,1.2-0.3,2-1c0.8-0.7,1.5-1.5,2.3-2.4c0.7-0.9,1.4-1.8,1.9-2.7s0.8-1.5,0.8-1.8c0-0.7-0.2-1.3-0.6-1.7
		c-0.4-0.4-0.9-0.7-1.6-0.8c-0.6-0.2-1.2-0.3-1.9-0.3c-0.7,0-1.2-0.1-1.6-0.1c-0.6,0-1.2,0-2,0.1c-0.8,0.1-1.5,0.2-2.2,0.5
		c-0.7,0.3-1.3,0.7-1.8,1.2C43.7,39.5,43.4,40.2,43.3,41.1z M59.9,41.9c-0.5,0-1.1,0.3-2,1c-0.9,0.7-1.8,1.5-2.6,2.4
		c-0.9,0.9-1.7,1.8-2.3,2.7c-0.7,0.9-1,1.6-1.1,2.1c0.2,0,0.7,0,1.4,0c0.7,0,1.4,0,2.2,0.1c0.8,0,1.5,0,2.2,0c0.7,0,1.2,0,1.4,0
		c0.2,0,0.4,0,0.7-0.1c0.3-0.1,0.7-0.1,1-0.2c0.3-0.1,0.6-0.1,0.9-0.2c0.3-0.1,0.4-0.1,0.5-0.2c0,0,0.1-0.1,0.1-0.4
		c0-0.3,0-0.5,0-0.7c0-0.3,0-0.9-0.1-1.6c-0.1-0.7-0.2-1.4-0.4-2.2c-0.2-0.7-0.4-1.4-0.7-1.9C60.8,42.2,60.4,41.9,59.9,41.9z
		 M61.2,38.8c0.8,1.1,1.5,2.4,2.2,3.7c0.7,1.3,1.3,2.6,1.9,4l6.3-20L61.2,38.8z"/>
	<path class="st17" d="M72.9,64.1c0-0.5,0.2-1.2,0.5-1.8c0.3-0.7,0.7-1.1,1.3-1.3c0.1,0,0.2-0.1,0.3-0.1c0.1,0,0.3,0,0.4-0.1
		c0.2,0,0.3,0,0.4,0l-0.2,3.5c0.3-0.2,0.6-0.7,1.2-1.3c0.5-0.6,1.1-1.4,1.6-2.1c0.6-0.8,1.1-1.5,1.6-2.2c0.5-0.7,0.8-1.2,1-1.5
		l15.3-28c0.5-0.5,0.8-0.8,1.1-0.9c0.3-0.1,0.6,0,1,0.2c0.3,0.2,0.6,0.8,0.9,1.7L90,47.7l0,0.8c1.1,0.2,2.1,0.5,3,0.9
		c0.9,0.4,1.7,0.9,2.4,1.5c0.7,0.6,1.2,1.4,1.5,2.3c0.3,0.9,0.5,1.9,0.4,3.2c-0.1,2.1-0.7,4-1.8,5.7c-1.1,1.7-2.5,3.2-4.1,4.5
		c-1.6,1.2-3.4,2.2-5.4,2.9c-1.9,0.7-3.8,1-5.6,0.9c-0.8,0-1.6-0.2-2.5-0.5c-0.9-0.3-1.7-0.7-2.4-1.2c-0.7-0.5-1.4-1.2-1.8-1.9
		C73.1,65.9,72.8,65,72.9,64.1z M90.3,52.5c-0.5,0-1.2,0.2-1.8,0.7c-0.7,0.5-1.4,1.2-2,2c-0.7,0.8-1.3,1.8-2,2.8
		c-0.6,1-1.2,2.1-1.7,3.1c-0.5,1-0.9,2-1.2,2.9c-0.3,0.9-0.5,1.6-0.5,2.2c1.1,0.1,2.4-0.2,3.8-0.6c1.4-0.5,2.7-1.1,4-2
		c1.2-0.8,2.3-1.8,3.2-3c0.9-1.2,1.3-2.4,1.4-3.7c0.1-1.1-0.1-2.2-0.5-3C92.4,53.1,91.6,52.6,90.3,52.5z"/>
	<path class="st17" d="M100,65.9c0-0.2,0-0.5,0.1-1c0-0.5,0.1-0.9,0.1-1c1.4-3,3.2-5.8,5.3-8.3c2.1-2.5,4.4-4.7,7-6.6
		c0.1,0,0.2,0,0.4-0.1c0.2-0.1,0.3-0.1,0.4-0.1c1.1,0.1,1.9,0.3,2.6,0.9c0.7,0.5,1.2,1.2,1.5,2c0.4,0.8,0.6,1.7,0.7,2.6
		c0.1,1,0.1,1.9,0.1,2.8c-0.1,1.6-0.5,3.4-1.3,5.1c-0.8,1.8-1.8,3.4-3.1,4.8c-1.3,1.4-2.7,2.6-4.3,3.5s-3.2,1.3-4.8,1.2
		c-1.6-0.1-2.9-0.6-3.6-1.6C100.2,69,99.9,67.6,100,65.9z M104.6,65.4c0,0.5,0.1,0.8,0.5,1c0.3,0.2,0.7,0.3,1,0.3
		c1,0.1,2-0.2,2.9-0.7c1-0.5,1.8-1.2,2.6-2c0.8-0.8,1.4-1.8,1.9-2.8c0.5-1,0.8-2,0.8-3c0-0.5,0-1,0-1.6c0-0.6-0.1-1.1-0.3-1.5
		c-0.2-0.5-0.5-0.8-0.9-1.1c-0.4-0.3-1-0.3-1.7-0.2c-0.6,0.1-1.2,0.6-2,1.5c-0.8,0.9-1.5,2-2.2,3.3c-0.7,1.3-1.3,2.5-1.8,3.8
		C104.9,63.7,104.6,64.7,104.6,65.4z"/>
	<path class="st17" d="M120.1,69.2c0-0.6,0.3-1.5,0.7-2.7c0.4-1.1,0.9-2.4,1.6-3.7c0.6-1.3,1.4-2.7,2.2-4c0.8-1.4,1.6-2.6,2.4-3.7
		c0.8-1.1,1.6-2,2.3-2.7c0.7-0.7,1.3-1,1.8-1c1.1,0.1,1.6,0.7,1.6,1.8c0,0.5-0.1,0.9-0.3,1.3c-0.2,0.3-0.4,0.6-0.7,0.9
		c-0.3,0.3-0.5,0.6-0.8,0.8c-0.3,0.3-0.5,0.6-0.8,0.9c-0.4,0.6-0.9,1.5-1.4,2.5c-0.6,1.1-1.1,2.1-1.7,3.1c-0.5,1-1,1.9-1.4,2.7
		c-0.4,0.8-0.6,1.2-0.6,1.3l0,0.8c1.5-0.2,3.1-0.8,4.5-1.9c1.5-1,2.9-2.3,4.2-3.7c1.4-1.5,2.7-3,3.9-4.6c1.2-1.6,2.4-3.1,3.5-4.5
		c1.1-1.4,2.1-2.5,3.1-3.4c1-0.9,1.8-1.3,2.6-1.3c-0.1,1.6-0.5,3-1.1,4.2c-0.7,1.2-1.4,2.4-2.1,3.6c-0.8,1.2-1.5,2.4-2.1,3.7
		c-0.7,1.3-1,2.7-1.1,4.3c0,0.7,0.3,1.3,1.1,1.9c0.7,0.6,1.6,1.1,2.6,1.5c1,0.4,1.9,0.8,2.9,1c0.9,0.3,1.6,0.4,1.9,0.5l-0.1,1.6
		c-0.9,0-2-0.1-3.4-0.1s-2.7-0.3-4-0.7c-1.3-0.4-2.5-0.9-3.5-1.7s-1.7-1.8-2-3.2c-1.1,0.7-2.1,1.5-3.1,2.4c-1,0.9-2,1.8-3.1,2.6
		c-1,0.8-2.1,1.5-3.3,2c-1.1,0.5-2.3,0.8-3.6,0.7c-0.8,0-1.4-0.4-1.9-1.2C120.3,70.6,120,69.9,120.1,69.2z"/>
	<path class="st17" d="M148.2,67.7c0.1-1.2,0.3-2.4,0.8-3.6c0.5-1.2,1.1-2.4,1.7-3.6c0.7-1.2,1.3-2.3,2-3.5c0.7-1.1,1.2-2.3,1.6-3.4
		c-0.8,0.4-1.4,0.7-2,0.7c-0.5,0-1.2,0-1.9,0c-0.1,0-0.3,0-0.7-0.1c-0.4,0-0.7-0.1-0.8-0.1c0.3-0.9,0.8-1.7,1.4-2.4
		c0.7-0.7,1.4-1.3,2.3-1.8c0.8-0.5,1.7-0.9,2.6-1.2c0.9-0.3,1.7-0.6,2.4-0.7c1.3-1.9,2.4-3.9,3.2-5.8c0.9-2,1.7-3.9,2.6-5.8
		c0.9-1.9,1.9-3.7,3-5.4c1.1-1.7,2.6-3.2,4.5-4.6l0.2,2.4L162.7,47c0.4-0.1,1-0.2,1.6-0.3c0.6-0.1,1.3-0.2,1.9-0.3
		c0.7-0.1,1.3-0.2,1.9-0.2c0.6-0.1,1.1-0.2,1.6-0.3c0,0,0.2,0,0.4,0c0.2,0,0.4,0,0.5,0c0.5,0,1,0.2,1.3,0.4c0.3,0.2,0.6,0.7,0.8,1.4
		c-2.7,0.7-5.2,1.5-7.4,2.3c-2.2,0.8-4.2,1.9-5.8,3.3c-1.7,1.4-3.1,3.2-4.2,5.5c-1.1,2.2-2,5.2-2.6,8.7c0,0.8,0,1.5,0,2.1
		c0,0.6,0.5,1,1.4,1.2c0.9,0,1.8-0.1,2.6-0.4c0.8-0.3,1.6-0.7,2.4-1.1c0.8-0.4,1.5-0.8,2.3-1.1c0.8-0.3,1.6-0.5,2.5-0.4
		c-0.1,1-0.5,1.9-1.4,2.7s-1.9,1.5-3.1,2.1c-1.2,0.6-2.4,1-3.6,1.3c-1.2,0.3-2.2,0.4-3,0.3c-0.8,0-1.5-0.2-2.1-0.6
		c-0.6-0.4-1.1-0.9-1.5-1.4c-0.4-0.6-0.7-1.3-0.8-2C148.2,69.3,148.1,68.5,148.2,67.7z"/>
</g>
<g class="st15">
	<path class="st16" d="M224.5,75c0.1-2.5,0.6-4.9,1.3-7.4c0.7-2.5,1.6-4.9,2.7-7.3c1.1-2.4,2.2-4.7,3.4-7c1.2-2.2,2.3-4.4,3.3-6.3
		l0-0.8c-0.5,0.5-1.2,1.2-2.2,2.3c-1,1-2.1,2.2-3.3,3.5c-1.2,1.3-2.5,2.7-3.9,4.1c-1.4,1.4-2.7,2.8-3.9,4.1
		c-1.2,1.3-2.3,2.5-3.3,3.5c-1,1-1.7,1.8-2.1,2.3c-0.5,0.5-0.9,1.2-1.4,2.2c-0.4,1-0.9,2-1.5,2.9c-0.5,1-1.1,1.8-1.7,2.6
		c-0.6,0.7-1.3,1.1-2,1c-0.6,0-1-0.1-1.4-0.3c-0.3-0.1-0.6-0.4-0.7-0.6c-0.1-0.3-0.2-0.6-0.2-1.1c0-0.4,0-0.9,0-1.5
		c0.2-3.1,0.8-6.1,1.8-9c1-2.9,2.1-5.8,3.2-8.8l0-0.8c-0.1,0.1-0.2,0.2-0.4,0.4c-0.2,0.2-0.3,0.3-0.4,0.4c-1,1.5-2.1,3.1-3.1,4.8
		c-1.1,1.7-2.2,3.4-3.3,5c-1.2,1.7-2.4,3.2-3.7,4.7c-1.3,1.5-2.7,2.8-4.2,3.9c-1.5,1.1-3.1,2-4.8,2.6c-1.7,0.6-3.6,0.9-5.6,0.8
		c-0.4,0-1-0.1-1.7-0.2c-0.7-0.1-1.4-0.2-2.1-0.5c-0.7-0.2-1.2-0.6-1.7-1.1c-0.5-0.5-0.7-1.2-0.6-2c0-0.3,0.2-0.8,0.6-1.3
		c0.4-0.5,0.7-0.9,1-1.1c0.5,1,0.9,1.7,1.3,2c0.4,0.3,0.9,0.5,1.6,0.6c1.2,0.1,2.4-0.1,3.8-0.4c1.3-0.3,2.6-0.8,3.9-1.4
		c1.3-0.6,2.5-1.3,3.6-2.2c1.1-0.8,2.1-1.7,2.9-2.6c0.6-0.8,1.4-1.9,2.3-3.1s1.9-2.7,2.9-4.2c1-1.5,2.1-3.1,3.2-4.7
		c1.1-1.6,2.2-3.1,3.2-4.6c1-1.4,2-2.7,2.9-3.9c0.9-1.1,1.6-2,2.3-2.5c0.5,0,1,0.1,1.2,0.4c0.3,0.2,0.4,0.5,0.5,0.8
		c0.1,0.3,0.1,0.7,0.1,1.2c0,0.5-0.1,1-0.1,1.5c-0.1,1.8-0.4,3.5-1,5.2c-0.6,1.7-1.2,3.3-1.9,4.8c-0.7,1.6-1.3,3.1-1.9,4.6
		c-0.6,1.5-0.9,3-1,4.5c0,0.1,0,0.2,0,0.4c0,0.2,0,0.4,0,0.4c3.9-4.2,7.3-7.8,10.2-10.9c2.8-3.1,5.3-5.7,7.2-7.8
		c2-2.2,3.6-3.9,4.9-5.3c1.3-1.4,2.3-2.4,3-3.1c0.7-0.7,1.3-1.3,1.7-1.5c0.4-0.3,0.7-0.4,0.9-0.4c0.4,0,0.7,0.2,0.9,0.4
		c0.2,0.3,0.3,0.6,0.3,0.9c0,0.3,0,0.7,0,1.1c0,0.4-0.1,0.7-0.1,0.9c-0.1,1.8-0.5,3.6-1.2,5.4c-0.7,1.8-1.6,3.6-2.6,5.5
		c-1,1.9-2.1,3.8-3.3,5.7c-1.2,1.9-2.3,3.9-3.3,5.9c-1,2-1.9,4.1-2.6,6.2c-0.7,2.1-1.1,4.3-1.3,6.5c-0.1,1.1-0.1,2-0.1,2.5
		c0,0.5,0.1,1,0.3,1.4c0.2,0.4,0.5,0.8,0.9,1.2c0.4,0.4,1,1.1,1.7,2c-0.9,0.5-1.8,0.7-2.7,0.5c-0.8-0.2-1.5-0.6-2.1-1.2
		c-0.6-0.7-1-1.6-1.2-2.7C224.1,77.6,224.2,76.4,224.5,75z"/>
	<path class="st16" d="M237,75.3c-0.6-1.6-0.8-3.2-0.6-4.8c0.2-1.5,0.6-3,1.2-4.3c0.6-1.3,1.5-2.5,2.4-3.6c1-1.1,2-2,3.1-2.8
		c1.1-0.8,2.2-1.3,3.3-1.7c1.1-0.4,2.1-0.5,2.9-0.4s1.5,0.5,1.9,1.1c0.4,0.6,0.5,1.5,0.3,2.8c-0.1,1.6-0.6,3.1-1.7,4.2
		c-1,1.2-2.1,2.2-3.4,3.1c-1.2,0.9-2.3,1.7-3.3,2.5c-1,0.7-1.5,1.4-1.6,2.1c0,0.4,0.2,0.7,0.6,0.9c0.4,0.2,0.9,0.4,1.4,0.6
		c0.5,0.1,1.1,0.2,1.6,0.3c0.5,0.1,0.9,0.1,1.2,0.2c3.7-0.6,6.5-1,8.4-1.1c1.9-0.1,3,0,3.5,0.2c0.5,0.3,0.4,0.6-0.3,1.1
		c-0.7,0.5-1.7,0.9-3.1,1.4c-1.4,0.5-2.9,0.8-4.7,1.2c-1.8,0.3-3.6,0.5-5.3,0.4c-1.7,0-3.3-0.3-4.8-0.8
		C238.7,77.4,237.6,76.5,237,75.3z M248.1,61.4c-0.8,0-1.5,0.2-2.3,0.6c-0.7,0.4-1.4,1-2,1.6s-1.1,1.4-1.6,2.2
		c-0.4,0.8-0.8,1.6-1,2.3c0.1,0,0.1,0.1,0.2,0.1l0.2,0c0.5,0,1.2-0.2,1.9-0.7c0.7-0.5,1.4-1.1,2.1-1.8c0.7-0.7,1.2-1.4,1.7-2.2
		C247.8,62.7,248,62,248.1,61.4z"/>
</g>
<g class="st15">
	<path class="st17" d="M224.5,75c0.1-2.5,0.6-4.9,1.3-7.4c0.7-2.5,1.6-4.9,2.7-7.3c1.1-2.4,2.2-4.7,3.4-7c1.2-2.2,2.3-4.4,3.3-6.3
		l0-0.8c-0.5,0.5-1.2,1.2-2.2,2.3c-1,1-2.1,2.2-3.3,3.5c-1.2,1.3-2.5,2.7-3.9,4.1c-1.4,1.4-2.7,2.8-3.9,4.1
		c-1.2,1.3-2.3,2.5-3.3,3.5c-1,1-1.7,1.8-2.1,2.3c-0.5,0.5-0.9,1.2-1.4,2.2c-0.4,1-0.9,2-1.5,2.9c-0.5,1-1.1,1.8-1.7,2.6
		c-0.6,0.7-1.3,1.1-2,1c-0.6,0-1-0.1-1.4-0.3c-0.3-0.1-0.6-0.4-0.7-0.6c-0.1-0.3-0.2-0.6-0.2-1.1c0-0.4,0-0.9,0-1.5
		c0.2-3.1,0.8-6.1,1.8-9c1-2.9,2.1-5.8,3.2-8.8l0-0.8c-0.1,0.1-0.2,0.2-0.4,0.4c-0.2,0.2-0.3,0.3-0.4,0.4c-1,1.5-2.1,3.1-3.1,4.8
		c-1.1,1.7-2.2,3.4-3.3,5c-1.2,1.7-2.4,3.2-3.7,4.7c-1.3,1.5-2.7,2.8-4.2,3.9c-1.5,1.1-3.1,2-4.8,2.6c-1.7,0.6-3.6,0.9-5.6,0.8
		c-0.4,0-1-0.1-1.7-0.2c-0.7-0.1-1.4-0.2-2.1-0.5c-0.7-0.2-1.2-0.6-1.7-1.1c-0.5-0.5-0.7-1.2-0.6-2c0-0.3,0.2-0.8,0.6-1.3
		c0.4-0.5,0.7-0.9,1-1.1c0.5,1,0.9,1.7,1.3,2c0.4,0.3,0.9,0.5,1.6,0.6c1.2,0.1,2.4-0.1,3.8-0.4c1.3-0.3,2.6-0.8,3.9-1.4
		c1.3-0.6,2.5-1.3,3.6-2.2c1.1-0.8,2.1-1.7,2.9-2.6c0.6-0.8,1.4-1.9,2.3-3.1s1.9-2.7,2.9-4.2c1-1.5,2.1-3.1,3.2-4.7
		c1.1-1.6,2.2-3.1,3.2-4.6c1-1.4,2-2.7,2.9-3.9c0.9-1.1,1.6-2,2.3-2.5c0.5,0,1,0.1,1.2,0.4c0.3,0.2,0.4,0.5,0.5,0.8
		c0.1,0.3,0.1,0.7,0.1,1.2c0,0.5-0.1,1-0.1,1.5c-0.1,1.8-0.4,3.5-1,5.2c-0.6,1.7-1.2,3.3-1.9,4.8c-0.7,1.6-1.3,3.1-1.9,4.6
		c-0.6,1.5-0.9,3-1,4.5c0,0.1,0,0.2,0,0.4c0,0.2,0,0.4,0,0.4c3.9-4.2,7.3-7.8,10.2-10.9c2.8-3.1,5.3-5.7,7.2-7.8
		c2-2.2,3.6-3.9,4.9-5.3c1.3-1.4,2.3-2.4,3-3.1c0.7-0.7,1.3-1.3,1.7-1.5c0.4-0.3,0.7-0.4,0.9-0.4c0.4,0,0.7,0.2,0.9,0.4
		c0.2,0.3,0.3,0.6,0.3,0.9c0,0.3,0,0.7,0,1.1c0,0.4-0.1,0.7-0.1,0.9c-0.1,1.8-0.5,3.6-1.2,5.4c-0.7,1.8-1.6,3.6-2.6,5.5
		c-1,1.9-2.1,3.8-3.3,5.7c-1.2,1.9-2.3,3.9-3.3,5.9c-1,2-1.9,4.1-2.6,6.2c-0.7,2.1-1.1,4.3-1.3,6.5c-0.1,1.1-0.1,2-0.1,2.5
		c0,0.5,0.1,1,0.3,1.4c0.2,0.4,0.5,0.8,0.9,1.2c0.4,0.4,1,1.1,1.7,2c-0.9,0.5-1.8,0.7-2.7,0.5c-0.8-0.2-1.5-0.6-2.1-1.2
		c-0.6-0.7-1-1.6-1.2-2.7C224.1,77.6,224.2,76.4,224.5,75z"/>
	<path class="st17" d="M237,75.3c-0.6-1.6-0.8-3.2-0.6-4.8c0.2-1.5,0.6-3,1.2-4.3c0.6-1.3,1.5-2.5,2.4-3.6c1-1.1,2-2,3.1-2.8
		c1.1-0.8,2.2-1.3,3.3-1.7c1.1-0.4,2.1-0.5,2.9-0.4s1.5,0.5,1.9,1.1c0.4,0.6,0.5,1.5,0.3,2.8c-0.1,1.6-0.6,3.1-1.7,4.2
		c-1,1.2-2.1,2.2-3.4,3.1c-1.2,0.9-2.3,1.7-3.3,2.5c-1,0.7-1.5,1.4-1.6,2.1c0,0.4,0.2,0.7,0.6,0.9c0.4,0.2,0.9,0.4,1.4,0.6
		c0.5,0.1,1.1,0.2,1.6,0.3c0.5,0.1,0.9,0.1,1.2,0.2c3.7-0.6,6.5-1,8.4-1.1c1.9-0.1,3,0,3.5,0.2c0.5,0.3,0.4,0.6-0.3,1.1
		c-0.7,0.5-1.7,0.9-3.1,1.4c-1.4,0.5-2.9,0.8-4.7,1.2c-1.8,0.3-3.6,0.5-5.3,0.4c-1.7,0-3.3-0.3-4.8-0.8
		C238.7,77.4,237.6,76.5,237,75.3z M248.1,61.4c-0.8,0-1.5,0.2-2.3,0.6c-0.7,0.4-1.4,1-2,1.6s-1.1,1.4-1.6,2.2
		c-0.4,0.8-0.8,1.6-1,2.3c0.1,0,0.1,0.1,0.2,0.1l0.2,0c0.5,0,1.2-0.2,1.9-0.7c0.7-0.5,1.4-1.1,2.1-1.8c0.7-0.7,1.2-1.4,1.7-2.2
		C247.8,62.7,248,62,248.1,61.4z"/>
</g>
<path id="XMLID_79_" class="st18" d="M91,15.2c0,2-1.7,3.7-3.7,3.7s-3.7-1.7-3.7-3.7s1.7-3.7,3.7-3.7C89.4,11.5,91,13.2,91,15.2z"/>
<path id="XMLID_78_" class="st18" d="M71.4,15.2c0,2-1.7,3.7-3.7,3.7S64,17.2,64,15.2s1.7-3.7,3.7-3.7S71.4,13.2,71.4,15.2z"/>
</svg>
